<?xml version="1.0" encoding="utf-8"?>
<!-- Generator: Adobe Illustrator 22.1.0, SVG Export Plug-In . SVG Version: 6.00 Build 0)  -->
<svg version="1.1" id="Слой_1" xmlns="http://www.w3.org/2000/svg" xmlns:xlink="http://www.w3.org/1999/xlink" x="0px" y="0px"
	 viewBox="0 0 100 100" style="enable-background:new 0 0 100 100;" xml:space="preserve">
<style type="text/css">
	.st0{display:none;fill:#272525;}
	.st1{fill:none;stroke:#FF6B00;stroke-width:2;stroke-miterlimit:10;}
</style>
<rect x="9" y="9" class="st0" width="82" height="82"/>
<path class="st1" d="M91.9,21.7c-5.7,4.1-27.4,10.7-44.9,9.5c-9-0.6-31-6.6-36.9-18.4"/>
<path class="st1" d="M91.9,78.7c-5.7,4.1-27.4,10.7-44.9,9.5c-9-0.6-30.2-6-36.2-17.8"/>
<path class="st1" d="M51.8,5.6"/>
<line class="st1" x1="91.9" y1="21.7" x2="91.9" y2="78.7"/>
<path class="st1" d="M89.6,20.5c-5.4,3.9-25.8,10.1-42.3,8.9c-8.5-0.6-29.1-6.2-34.8-17.3L10,13v-0.2l0.8,57.9"/>
<line class="st1" x1="91.9" y1="21.7" x2="89" y2="20.6"/>
</svg>
