<?xml version="1.0" encoding="utf-8"?>
<!-- Generator: Adobe Illustrator 22.1.0, SVG Export Plug-In . SVG Version: 6.00 Build 0)  -->
<svg version="1.1" id="Слой_1" xmlns="http://www.w3.org/2000/svg" xmlns:xlink="http://www.w3.org/1999/xlink" x="0px" y="0px"
	 viewBox="0 0 100 100" style="enable-background:new 0 0 100 100;" xml:space="preserve">
<style type="text/css">
	.st0{display:none;fill:#272525;}
	.st1{fill:none;stroke:#FF6B00;stroke-width:2;stroke-miterlimit:10;}
</style>
<rect x="9" y="9" class="st0" width="82" height="82"/>
<rect x="7.5" y="7.3" class="st1" width="84.9" height="84.9"/>
<line class="st1" x1="18.3" y1="12.4" x2="34.3" y2="12.4"/>
<line class="st1" x1="18.3" y1="16.1" x2="34.3" y2="16.1"/>
<line class="st1" x1="18.3" y1="19.6" x2="34.3" y2="19.6"/>
<line class="st1" x1="18.3" y1="23.5" x2="34.3" y2="23.5"/>
<line class="st1" x1="18.3" y1="26.9" x2="34.3" y2="26.9"/>
<line class="st1" x1="64.9" y1="12.4" x2="80.9" y2="12.4"/>
<line class="st1" x1="64.9" y1="16.1" x2="80.9" y2="16.1"/>
<line class="st1" x1="64.9" y1="19.6" x2="80.9" y2="19.6"/>
<line class="st1" x1="64.9" y1="23.5" x2="80.9" y2="23.5"/>
<line class="st1" x1="64.9" y1="26.9" x2="80.9" y2="26.9"/>
<line class="st1" x1="41.5" y1="31.9" x2="57.5" y2="31.9"/>
<line class="st1" x1="41.5" y1="35.6" x2="57.5" y2="35.6"/>
<line class="st1" x1="41.5" y1="39.1" x2="57.5" y2="39.1"/>
<line class="st1" x1="41.5" y1="43" x2="57.5" y2="43"/>
<line class="st1" x1="41.5" y1="46.4" x2="57.5" y2="46.4"/>
<line class="st1" x1="42.4" y1="12.4" x2="42.4" y2="26.9"/>
<line class="st1" x1="45.9" y1="12.4" x2="45.9" y2="26.9"/>
<line class="st1" x1="49.5" y1="12.4" x2="49.5" y2="26.9"/>
<line class="st1" x1="52.8" y1="12.4" x2="52.8" y2="26.9"/>
<line class="st1" x1="56.3" y1="12.4" x2="56.3" y2="26.9"/>
<line class="st1" x1="18.2" y1="51.4" x2="34.2" y2="51.4"/>
<line class="st1" x1="18.2" y1="55.1" x2="34.2" y2="55.1"/>
<line class="st1" x1="18.2" y1="58.6" x2="34.2" y2="58.6"/>
<line class="st1" x1="18.2" y1="62.5" x2="34.2" y2="62.5"/>
<line class="st1" x1="18.2" y1="65.9" x2="34.2" y2="65.9"/>
<line class="st1" x1="64.8" y1="51.4" x2="80.8" y2="51.4"/>
<line class="st1" x1="64.8" y1="55.1" x2="80.8" y2="55.1"/>
<line class="st1" x1="64.8" y1="58.6" x2="80.8" y2="58.6"/>
<line class="st1" x1="64.8" y1="62.5" x2="80.8" y2="62.5"/>
<line class="st1" x1="64.8" y1="65.9" x2="80.8" y2="65.9"/>
<line class="st1" x1="42.3" y1="51.4" x2="42.3" y2="65.9"/>
<line class="st1" x1="45.8" y1="51.4" x2="45.8" y2="65.9"/>
<line class="st1" x1="49.4" y1="51.4" x2="49.4" y2="65.9"/>
<line class="st1" x1="52.7" y1="51.4" x2="52.7" y2="65.9"/>
<line class="st1" x1="56.2" y1="51.4" x2="56.2" y2="65.9"/>
<line class="st1" x1="19.3" y1="31.9" x2="19.3" y2="46.4"/>
<line class="st1" x1="22.8" y1="31.9" x2="22.8" y2="46.4"/>
<line class="st1" x1="26.4" y1="31.9" x2="26.4" y2="46.4"/>
<line class="st1" x1="29.7" y1="31.9" x2="29.7" y2="46.4"/>
<line class="st1" x1="33.2" y1="31.9" x2="33.2" y2="46.4"/>
<line class="st1" x1="65.9" y1="31.9" x2="65.9" y2="46.4"/>
<line class="st1" x1="69.4" y1="31.9" x2="69.4" y2="46.4"/>
<line class="st1" x1="73.1" y1="31.9" x2="73.1" y2="46.4"/>
<line class="st1" x1="76.3" y1="31.9" x2="76.3" y2="46.4"/>
<line class="st1" x1="79.8" y1="31.9" x2="79.8" y2="46.4"/>
<line class="st1" x1="41.4" y1="70.9" x2="57.4" y2="70.9"/>
<line class="st1" x1="41.4" y1="74.6" x2="57.4" y2="74.6"/>
<line class="st1" x1="41.4" y1="78.1" x2="57.4" y2="78.1"/>
<line class="st1" x1="41.4" y1="82" x2="57.4" y2="82"/>
<line class="st1" x1="41.4" y1="85.4" x2="57.4" y2="85.4"/>
<line class="st1" x1="19.3" y1="70.9" x2="19.3" y2="85.4"/>
<line class="st1" x1="22.8" y1="70.9" x2="22.8" y2="85.4"/>
<line class="st1" x1="26.4" y1="70.9" x2="26.4" y2="85.4"/>
<line class="st1" x1="29.6" y1="70.9" x2="29.6" y2="85.4"/>
<line class="st1" x1="33.1" y1="70.9" x2="33.1" y2="85.4"/>
<line class="st1" x1="65.9" y1="70.9" x2="65.9" y2="85.4"/>
<line class="st1" x1="69.4" y1="70.9" x2="69.4" y2="85.4"/>
<line class="st1" x1="73" y1="70.9" x2="73" y2="85.4"/>
<line class="st1" x1="76.3" y1="70.9" x2="76.3" y2="85.4"/>
<line class="st1" x1="79.8" y1="70.9" x2="79.8" y2="85.4"/>
</svg>
