<?xml version="1.0" encoding="utf-8"?>
<!-- Generator: Adobe Illustrator 22.1.0, SVG Export Plug-In . SVG Version: 6.00 Build 0)  -->
<svg version="1.1" id="Слой_1" xmlns="http://www.w3.org/2000/svg" xmlns:xlink="http://www.w3.org/1999/xlink" x="0px" y="0px"
	 viewBox="0 0 100 100" style="enable-background:new 0 0 100 100;" xml:space="preserve">
<style type="text/css">
	.st0{display:none;fill:#272525;}
	.st1{fill:#FFFFFF;stroke:#FF6B00;stroke-width:2;stroke-miterlimit:10;}
	.st2{fill:none;stroke:#FF6B00;stroke-width:2;stroke-miterlimit:10;}
</style>
<rect x="9" y="9" class="st0" width="82" height="82"/>
<path class="st1" d="M82,19.6"/>
<path class="st1" d="M84.7,22.7c5.9,7.5,9.5,17,9.5,27.3c0,24.4-19.8,44.1-44.1,44.1S5.9,74.4,5.9,50S25.6,5.9,50,5.9
	c12.2,0,23.2,4.9,31.2,12.9"/>
<path class="st1" d="M84,21.9"/>
<path class="st1" d="M80.6,25.7c5.3,6.7,8.5,15.1,8.5,24.3c0,21.6-17.5,39.1-39.1,39.1S10.9,71.6,10.9,50S28.4,10.9,50,10.9
	c11.1,0,21.7,5.3,28.8,12.7"/>
<circle class="st1" cx="50" cy="50" r="34.2"/>
<circle class="st1" cx="50" cy="50" r="25.3"/>
<line class="st2" x1="45" y1="38.3" x2="31.2" y2="9.3"/>
<line class="st2" x1="52.8" y1="52.2" x2="86.2" y2="75.3"/>
<polyline class="st2" points="76.5,28.3 78.8,23.6 81.2,18.8 "/>
<polyline class="st2" points="76.5,28.3 80.5,25.6 84.5,22.8 "/>
</svg>
