<?xml version="1.0" encoding="utf-8"?>
<!-- Generator: Adobe Illustrator 22.1.0, SVG Export Plug-In . SVG Version: 6.00 Build 0)  -->
<svg version="1.1" id="Слой_1" xmlns="http://www.w3.org/2000/svg" xmlns:xlink="http://www.w3.org/1999/xlink" x="0px" y="0px"
	 viewBox="0 0 100 100" style="enable-background:new 0 0 100 100;" xml:space="preserve">
<style type="text/css">
	.st0{display:none;fill:#272525;}
	.st1{fill:none;stroke:#FF6B00;stroke-width:2;stroke-miterlimit:10;}
</style>
<rect x="9" y="9" class="st0" width="82" height="82"/>
<line class="st1" x1="3" y1="20.7" x2="3" y2="29.3"/>
<line class="st1" x1="80.3" y1="29.3" x2="3" y2="29.3"/>
<line class="st1" x1="80.3" y1="20.7" x2="3" y2="20.7"/>
<line class="st1" x1="96.6" y1="12.9" x2="19.3" y2="12.9"/>
<line class="st1" x1="80.3" y1="29.3" x2="80.3" y2="20.7"/>
<line class="st1" x1="96.6" y1="21.5" x2="96.6" y2="12.9"/>
<line class="st1" x1="3" y1="20.7" x2="19.6" y2="12.8"/>
<line class="st1" x1="80.3" y1="20.7" x2="96.6" y2="12.9"/>
<line class="st1" x1="80.3" y1="29.3" x2="96.6" y2="21.5"/>
<line class="st1" x1="80.3" y1="48.7" x2="3" y2="48.7"/>
<line class="st1" x1="80.3" y1="40" x2="3" y2="40"/>
<line class="st1" x1="96.6" y1="32.2" x2="19.3" y2="32.2"/>
<line class="st1" x1="80.3" y1="48.7" x2="80.3" y2="40"/>
<line class="st1" x1="96.6" y1="40.9" x2="96.6" y2="32.2"/>
<line class="st1" x1="3" y1="40" x2="19.6" y2="32.1"/>
<line class="st1" x1="80.3" y1="40" x2="96.6" y2="32.2"/>
<line class="st1" x1="80.3" y1="48.7" x2="96.6" y2="40.9"/>
<line class="st1" x1="80.5" y1="68.7" x2="3.2" y2="68.7"/>
<line class="st1" x1="80.5" y1="60" x2="3.2" y2="60"/>
<line class="st1" x1="96.8" y1="52.2" x2="19.5" y2="52.2"/>
<line class="st1" x1="80.5" y1="68.7" x2="80.5" y2="60"/>
<line class="st1" x1="96.8" y1="60.9" x2="96.8" y2="52.2"/>
<line class="st1" x1="3.2" y1="60" x2="19.8" y2="52.1"/>
<line class="st1" x1="80.5" y1="60" x2="96.8" y2="52.2"/>
<line class="st1" x1="80.5" y1="68.7" x2="96.8" y2="60.9"/>
<line class="st1" x1="80.5" y1="89" x2="3.2" y2="89"/>
<line class="st1" x1="80.5" y1="80.3" x2="3.2" y2="80.3"/>
<line class="st1" x1="96.8" y1="72.5" x2="19.5" y2="72.5"/>
<line class="st1" x1="80.5" y1="89" x2="80.5" y2="80.3"/>
<line class="st1" x1="96.8" y1="81.2" x2="96.8" y2="72.5"/>
<line class="st1" x1="3.2" y1="80.3" x2="19.8" y2="72.4"/>
<line class="st1" x1="80.5" y1="80.3" x2="96.8" y2="72.5"/>
<line class="st1" x1="80.5" y1="89" x2="96.8" y2="81.2"/>
<line class="st1" x1="3" y1="40" x2="3" y2="48.7"/>
<line class="st1" x1="3.2" y1="60" x2="3.2" y2="68.7"/>
<line class="st1" x1="3.2" y1="80.3" x2="3.2" y2="89"/>
</svg>
