<?xml version="1.0" encoding="utf-8"?>
<!-- Generator: Adobe Illustrator 22.1.0, SVG Export Plug-In . SVG Version: 6.00 Build 0)  -->
<svg version="1.1" id="Слой_1" xmlns="http://www.w3.org/2000/svg" xmlns:xlink="http://www.w3.org/1999/xlink" x="0px" y="0px"
	 viewBox="0 0 100 100" style="enable-background:new 0 0 100 100;" xml:space="preserve">
<style type="text/css">
	.st0{display:none;fill:#272525;}
	.st1{fill:none;stroke:#FF6B00;stroke-width:2;stroke-miterlimit:10;}
</style>
<rect x="9" y="9" class="st0" width="82" height="82"/>
<rect x="7.8" y="8.2" class="st1" width="84.3" height="84.3"/>
<line class="st1" x1="24.8" y1="8.2" x2="19.8" y2="22.7"/>
<line class="st1" x1="7.8" y1="24.3" x2="19.8" y2="22.7"/>
<line class="st1" x1="31.3" y1="33.8" x2="19.8" y2="22.7"/>
<line class="st1" x1="39.3" y1="23.5" x2="31.3" y2="33.8"/>
<line class="st1" x1="38.2" y1="8.2" x2="39.3" y2="23.5"/>
<line class="st1" x1="7.8" y1="37.2" x2="18" y2="43.3"/>
<line class="st1" x1="31.3" y1="33.8" x2="18" y2="43.3"/>
<line class="st1" x1="7.8" y1="60" x2="22.3" y2="54.5"/>
<line class="st1" x1="18" y1="43.3" x2="22.3" y2="54.5"/>
<line class="st1" x1="31.3" y1="33.8" x2="44.5" y2="43"/>
<line class="st1" x1="22.3" y1="54.5" x2="44.5" y2="43"/>
<line class="st1" x1="40.2" y1="23.5" x2="57.3" y2="21.7"/>
<line class="st1" x1="44.5" y1="43" x2="57.3" y2="21.7"/>
<line class="st1" x1="55.3" y1="8.2" x2="57.3" y2="21.7"/>
<line class="st1" x1="76.7" y1="8.2" x2="72.3" y2="25.2"/>
<line class="st1" x1="57.3" y1="21.7" x2="72.3" y2="25.2"/>
<line class="st1" x1="44.5" y1="43" x2="66.8" y2="40.3"/>
<line class="st1" x1="72.3" y1="25.2" x2="66.8" y2="40.3"/>
<line class="st1" x1="44.5" y1="43" x2="47.8" y2="57.3"/>
<line class="st1" x1="64.8" y1="54" x2="47.8" y2="57.3"/>
<line class="st1" x1="66.8" y1="40.3" x2="64.8" y2="54"/>
<line class="st1" x1="22.3" y1="54.5" x2="29.3" y2="73.5"/>
<line class="st1" x1="47.8" y1="57.3" x2="29.3" y2="73.5"/>
<line class="st1" x1="7.8" y1="69.8" x2="29.3" y2="73.5"/>
<line class="st1" x1="30.3" y1="92.4" x2="29.3" y2="73.5"/>
<line class="st1" x1="47.8" y1="57.3" x2="57" y2="71"/>
<line class="st1" x1="48.8" y1="91.5" x2="48.8" y2="81.7"/>
<line class="st1" x1="29.3" y1="73.5" x2="48.8" y2="81.7"/>
<line class="st1" x1="57" y1="71" x2="48.8" y2="81.7"/>
<line class="st1" x1="64.8" y1="54" x2="74.5" y2="68.2"/>
<line class="st1" x1="57" y1="71" x2="74.5" y2="68.2"/>
<line class="st1" x1="66.8" y1="40.3" x2="83.5" y2="43.2"/>
<line class="st1" x1="92.1" y1="33.5" x2="83.5" y2="43.2"/>
<line class="st1" x1="83.2" y1="58.5" x2="83.5" y2="43.2"/>
<line class="st1" x1="74.5" y1="68.2" x2="83.3" y2="57.3"/>
<line class="st1" x1="92.1" y1="62.7" x2="83.3" y2="57.3"/>
<line class="st1" x1="74.5" y1="68.2" x2="80.8" y2="78.5"/>
<line class="st1" x1="92.1" y1="74.8" x2="80.8" y2="78.5"/>
<line class="st1" x1="69.6" y1="92.4" x2="68" y2="83.8"/>
<line class="st1" x1="80.8" y1="78.5" x2="68" y2="83.8"/>
<line class="st1" x1="48.8" y1="81.7" x2="68" y2="83"/>
<line class="st1" x1="72.3" y1="25.2" x2="92.1" y2="22.6"/>
</svg>
