<?xml version="1.0" encoding="utf-8"?>
<!-- Generator: Adobe Illustrator 22.1.0, SVG Export Plug-In . SVG Version: 6.00 Build 0)  -->
<svg version="1.1" id="Слой_1" xmlns="http://www.w3.org/2000/svg" xmlns:xlink="http://www.w3.org/1999/xlink" x="0px" y="0px"
	 viewBox="0 0 100 100" style="enable-background:new 0 0 100 100;" xml:space="preserve">
<style type="text/css">
	.st0{display:none;fill:#272525;}
	.st1{fill:none;stroke:#FF6B00;stroke-width:2;stroke-miterlimit:10;}
</style>
<rect x="9" y="9" class="st0" width="82" height="82"/>
<path class="st1" d="M50.6,86.8"/>
<line class="st1" x1="10.9" y1="50.2" x2="4.4" y2="50.2"/>
<line class="st1" x1="50.6" y1="4" x2="50.7" y2="11.1"/>
<line class="st1" x1="96.8" y1="50.2" x2="90.1" y2="50.2"/>
<line class="st1" x1="50.6" y1="96.4" x2="50.6" y2="89.8"/>
<line class="st1" x1="24.5" y1="20.8" x2="19.9" y2="15.7"/>
<line class="st1" x1="81.6" y1="84.4" x2="77.4" y2="79.7"/>
<line class="st1" x1="77.9" y1="22" x2="82.7" y2="17"/>
<path class="st1" d="M60.4,40.3"/>
<line class="st1" x1="18.9" y1="83.8" x2="23.2" y2="79.3"/>
<line class="st1" x1="36.8" y1="13.5" x2="34.3" y2="7"/>
<line class="st1" x1="67.1" y1="93.4" x2="64.9" y2="87.5"/>
<line class="st1" x1="65.1" y1="13.9" x2="67.7" y2="7.3"/>
<path class="st1" d="M55.5,38.2"/>
<line class="st1" x1="34" y1="93.3" x2="36.2" y2="87.6"/>
<line class="st1" x1="86.8" y1="34.7" x2="93.1" y2="32"/>
<line class="st1" x1="8.3" y1="68.7" x2="14.1" y2="66.2"/>
<line class="st1" x1="14.3" y1="34.7" x2="8.1" y2="32"/>
<line class="st1" x1="92.9" y1="68.8" x2="86.9" y2="66.2"/>
<line class="st1" x1="14.3" y1="34.7" x2="19.9" y2="15.7"/>
<line class="st1" x1="24.5" y1="20.8" x2="34.3" y2="7"/>
<line class="st1" x1="36.8" y1="13.5" x2="50.6" y2="4"/>
<line class="st1" x1="50.7" y1="11.1" x2="67.7" y2="7.3"/>
<line class="st1" x1="65.1" y1="13.9" x2="82.7" y2="17"/>
<line class="st1" x1="77.9" y1="22" x2="93.1" y2="32"/>
<line class="st1" x1="86.8" y1="34.7" x2="97" y2="50.4"/>
<line class="st1" x1="90.1" y1="50.2" x2="92.9" y2="68.8"/>
<line class="st1" x1="86.9" y1="66.2" x2="81.6" y2="84.4"/>
<line class="st1" x1="77.4" y1="79.7" x2="67.1" y2="93.4"/>
<line class="st1" x1="64.9" y1="87.5" x2="50.6" y2="96.4"/>
<line class="st1" x1="50.5" y1="90.2" x2="34" y2="93.3"/>
<line class="st1" x1="36.2" y1="87.6" x2="18.9" y2="83.8"/>
<line class="st1" x1="23.2" y1="79.3" x2="8.3" y2="68.7"/>
<line class="st1" x1="14.1" y1="66.2" x2="4.4" y2="50.2"/>
<line class="st1" x1="10.9" y1="50.2" x2="8.1" y2="32"/>
<circle class="st1" cx="51.2" cy="50.2" r="6.5"/>
</svg>
