<?xml version="1.0" encoding="utf-8"?>
<!-- Generator: Adobe Illustrator 17.0.0, SVG Export Plug-In . SVG Version: 6.00 Build 0)  -->
<!DOCTYPE svg PUBLIC "-//W3C//DTD SVG 1.1//EN" "http://www.w3.org/Graphics/SVG/1.1/DTD/svg11.dtd">
<svg version="1.1" id="Capa_1" xmlns="http://www.w3.org/2000/svg" xmlns:xlink="http://www.w3.org/1999/xlink" x="0px" y="0px"
	 width="255.12px" height="141.73px" viewBox="0 0 255.12 141.73" enable-background="new 0 0 255.12 141.73" xml:space="preserve">
<g>
	<path fill="#FFFFFF" d="M154.017,44.408c-1.066-1.066-2.788-1.066-3.854,0L127.56,67.011l-22.603-22.603
		c-1.066-1.066-2.788-1.066-3.854,0s-1.066,2.788,0,3.854l22.603,22.603l-22.603,22.603c-1.066,1.066-1.066,2.788,0,3.854
		c0.531,0.531,1.229,0.799,1.927,0.799s1.395-0.267,1.927-0.799l22.603-22.603l22.603,22.603c0.531,0.531,1.229,0.799,1.927,0.799
		s1.395-0.267,1.927-0.799c1.066-1.066,1.066-2.788,0-3.854l-22.603-22.603l22.603-22.603
		C155.083,47.196,155.083,45.474,154.017,44.408z"/>
</g>
</svg>
