<?xml version="1.0" encoding="utf-8"?>
<!-- Generator: Adobe Illustrator 22.1.0, SVG Export Plug-In . SVG Version: 6.00 Build 0)  -->
<svg version="1.1" id="Слой_1" xmlns="http://www.w3.org/2000/svg" xmlns:xlink="http://www.w3.org/1999/xlink" x="0px" y="0px"
	 viewBox="0 0 1096 776" style="enable-background:new 0 0 1096 776;" xml:space="preserve">
<style type="text/css">
	.st0{fill:#414141;}
	.st1{fill:none;stroke:#414141;stroke-miterlimit:10;}
</style>
<image style="display:none;overflow:visible;" width="828" height="670" xlink:href="../../../Downloads/Planirovka-odnojetazhnyh-kottedzhej-2.jpg"  transform="matrix(1 0 0 1 132 55)">
</image>
<g id="XMLID_1_">
	<g>
		<polygon class="st0" points="838.3,408.9 858.1,408.9 858,560.5 801,560.5 801,538.1 838.3,538.1 		"/>
		<polygon class="st0" points="838.3,330.8 838.3,228.7 801,228.7 801,206.8 858.1,206.8 858.1,206.9 858.1,330.8 858,330.8 		"/>
		<polygon class="st0" points="718.8,560 718.8,560.5 649,560.5 649,538.1 668.7,538.1 681.4,538.1 718.8,538.1 		"/>
		<polygon class="st0" points="718.8,228.7 681.4,228.7 681.4,393.3 668.7,393.3 668.7,386.7 516.4,386.7 516.4,368.1 529.4,368.1 
			529.4,374.8 668.7,374.8 668.7,228.7 649,228.7 649,206.8 718.8,206.8 718.8,208.1 		"/>
		<polygon class="st0" points="681.4,538.1 668.7,538.1 668.7,446 668.7,436.8 681.4,436.8 		"/>
		<polygon class="st0" points="607.6,560 607.6,560.5 587.2,560.4 587.2,538.1 607.6,538.1 		"/>
		<polygon class="st0" points="607.6,228.7 587.2,228.7 587.2,228.4 587.2,207 587.2,206.8 607.6,206.8 		"/>
		<polygon class="st0" points="537.3,590 537.3,615.6 393.5,615.6 393.5,560 239.7,560 239.7,455 259,455 259,538.1 398.9,538.1 
			398.9,440.4 398.9,377.4 398.9,371.9 411.8,371.9 411.8,538.1 411.8,595.3 516.4,595.3 516.4,590 		"/>
		<polygon class="st0" points="516.4,485.5 516.4,443 529.4,443 529.4,538.1 547.5,538.1 547.5,560 516.4,560.5 516.4,538.1 		"/>
		<polygon class="st0" points="547.5,228.7 529.4,228.7 529.4,342.1 516.4,342.1 516.4,330.8 516.4,179.5 510.8,179.5 510.8,161 
			536.3,161 536.3,206.8 547.5,206.8 		"/>
		<rect x="456.5" y="161" class="st0" width="18.3" height="18.6"/>
		<polygon class="st0" points="419,161 419,179.5 411.8,179.5 411.8,330.8 411.8,341.2 398.9,341.2 398.9,228.7 259,228.7 
			259,255.2 239.7,255.2 239.7,206.8 392.7,206.8 392.7,161 		"/>
		<polygon class="st0" points="259,381.1 259,386.7 239.7,386.7 239.7,315.9 259,315.9 		"/>
	</g>
	<g>
		<polyline class="st1" points="649,560.5 718.8,560.5 801,560.5 858,560.5 858.1,408.9 858.1,330.8 858.1,206.9 858.1,206.8 
			801,206.8 718.8,206.8 649,206.8 607.6,206.8 587.2,206.8 547.5,206.8 536.3,206.8 536.3,161 510.8,161 474.8,161 456.5,161 
			419,161 392.7,161 392.7,206.8 239.7,206.8 239.7,255.2 239.7,315.9 239.7,386.7 239.7,455 239.7,560 393.5,560 393.5,615.6 		"/>
		<polyline class="st1" points="411.8,330.8 411.8,179.5 419,179.5 456.5,179.5 474.8,179.5 510.8,179.5 516.4,179.5 516.4,330.8 		
			"/>
		<polyline class="st1" points="259,440.4 259,455 259,538.1 		"/>
		<polyline class="st1" points="259,381.1 259,386.7 259,440.4 		"/>
		<polyline class="st1" points="259,381.1 259,315.9 259,255.2 259,228.7 398.9,228.7 398.9,341.2 411.8,341.2 411.8,330.8 		"/>
		<line class="st1" x1="411.8" y1="538.1" x2="411.8" y2="595.3"/>
		<line class="st1" x1="547.5" y1="538.1" x2="547.5" y2="560"/>
		<polyline class="st1" points="547.5,560 516.4,560.5 516.4,538.1 		"/>
		<polyline class="st1" points="393.5,615.6 537.3,615.6 537.3,590 516.4,590 516.4,595.3 411.8,595.3 		"/>
		<line class="st1" x1="649" y1="560.5" x2="649" y2="538.1"/>
		<line class="st1" x1="607.6" y1="560" x2="607.6" y2="538.1"/>
		<line class="st1" x1="649" y1="560.5" x2="607.6" y2="560.5"/>
		<line class="st1" x1="516.4" y1="485.5" x2="516.4" y2="538.1"/>
		<polyline class="st1" points="398.9,440.4 398.9,538.1 259,538.1 		"/>
		<line class="st1" x1="398.9" y1="377.4" x2="398.9" y2="440.4"/>
		<polyline class="st1" points="411.8,538.1 411.8,371.9 398.9,371.9 398.9,377.4 		"/>
		<polyline class="st1" points="607.6,538.1 649,538.1 668.7,538.1 681.4,538.1 718.8,538.1 801,538.1 838.3,538.1 838.3,408.9 
			838.3,330.8 838.3,228.7 801,228.7 718.8,228.7 681.4,228.7 681.4,393.3 668.7,393.3 668.7,386.7 516.4,386.7 516.4,368.1 
			529.4,368.1 529.4,374.8 668.7,374.8 668.7,228.7 649,228.7 607.6,228.7 587.2,228.7 547.5,228.7 529.4,228.7 529.4,342.1 
			516.4,342.1 516.4,330.8 		"/>
		<polyline class="st1" points="547.5,538.1 587.2,538.1 607.6,538.1 		"/>
		<polyline class="st1" points="547.5,560 587.2,560.4 607.6,560.5 		"/>
		<polyline class="st1" points="587.2,538.1 587.2,560.4 587.2,560.5 		"/>
		<line class="st1" x1="668.7" y1="538.1" x2="668.7" y2="446"/>
		<polyline class="st1" points="516.4,485.5 516.4,443 529.4,443 529.4,538.1 547.5,538.1 		"/>
		<polyline class="st1" points="681.4,538.1 681.4,436.8 668.7,436.8 668.7,446 		"/>
		<line class="st1" x1="718.8" y1="538.1" x2="718.8" y2="560"/>
		<line class="st1" x1="801" y1="538.1" x2="801" y2="560.5"/>
		<line class="st1" x1="838.3" y1="330.8" x2="858" y2="330.8"/>
		<polyline class="st1" points="838.3,408.9 858.1,408.9 858.1,408.9 		"/>
		<line class="st1" x1="801" y1="228.7" x2="801" y2="206.8"/>
		<line class="st1" x1="547.5" y1="228.7" x2="547.5" y2="206.8"/>
		<line class="st1" x1="587.2" y1="228.4" x2="587.2" y2="207"/>
		<line class="st1" x1="649" y1="228.7" x2="649" y2="206.8"/>
		<line class="st1" x1="607.6" y1="228.7" x2="607.6" y2="206.8"/>
		<line class="st1" x1="419" y1="179.5" x2="419" y2="161"/>
		<line class="st1" x1="510.8" y1="179.5" x2="510.8" y2="161"/>
		<line class="st1" x1="474.8" y1="179.5" x2="474.8" y2="161"/>
		<line class="st1" x1="456.5" y1="179.5" x2="456.5" y2="161"/>
		<line class="st1" x1="239.7" y1="255.2" x2="259" y2="255.2"/>
		<line class="st1" x1="239.7" y1="315.9" x2="259" y2="315.9"/>
		<line class="st1" x1="239.7" y1="386.7" x2="259" y2="386.7"/>
		<line class="st1" x1="239.7" y1="455" x2="259" y2="455"/>
		<polyline class="st1" points="718.8,206.8 718.8,208.1 718.8,228.7 		"/>
	</g>
</g>
</svg>
