<?xml version="1.0" encoding="utf-8"?>
<!-- Generator: Adobe Illustrator 22.1.0, SVG Export Plug-In . SVG Version: 6.00 Build 0)  -->
<svg version="1.1" id="Слой_1" xmlns="http://www.w3.org/2000/svg" xmlns:xlink="http://www.w3.org/1999/xlink" x="0px" y="0px"
	 viewBox="0 0 1096 776" style="enable-background:new 0 0 1096 776;" xml:space="preserve">
<style type="text/css">
	.st0{fill:#414141;}
	.st1{fill:none;stroke:#414141;stroke-width:5;stroke-miterlimit:10;}
	.st2{fill:none;stroke:#414141;stroke-width:3;stroke-miterlimit:10;}
</style>
<image style="display:none;overflow:visible;enable-background:new    ;" width="828" height="670" xlink:href="../../../Downloads/Planirovka-odnojetazhnyh-kottedzhej-2.jpg"  transform="matrix(1 0 0 1 132 55)">
</image>
<g id="XMLID_1_">
	<g>
		<path class="st0" d="M334,534h38.2c-1.2,1.8-2.4,3.6-3.5,5.4H263.5V534h65H334z"/>
		<path class="st0" d="M263.5,577.8h87.1c-0.6,1.9-1.2,3.6-1.7,5.4h-85.4V577.8z"/>
		<rect x="799" y="188.8" class="st0" width="5.5" height="38.4"/>
		<rect x="671.4" y="188.8" class="st0" width="5.5" height="38.4"/>
		<polygon class="st0" points="606.6,232.7 606.6,271.2 606.6,271.3 601.2,271.3 601.2,271.2 601.2,232.7 601.2,232.4 606.6,232.4 
					"/>
		<path class="st0" d="M606.9,352.4c-0.8,2.2-1.6,4.4-2.5,6.6h-3v-38.4h5.5V352.4L606.9,352.4z"/>
		<polygon class="st0" points="540.7,364.4 540.7,402.7 535.3,402.7 535.3,364.4 535.3,364.3 540.7,364.3 		"/>
		<rect x="534.4" y="276.7" class="st0" width="5.5" height="38.5"/>
		<rect x="534.4" y="188.8" class="st0" width="5.5" height="38.4"/>
		<rect x="463.2" y="320.5" class="st0" width="5.5" height="38.4"/>
		<polygon class="st0" points="462.9,232.7 462.9,232.4 468.4,232.4 468.4,232.7 468.4,271.2 468.4,271.3 462.9,271.3 462.9,271.2 
					"/>
		<rect x="461.9" y="408.1" class="st0" width="5.5" height="38.4"/>
		<polygon class="st0" points="405.1,451.9 405.1,490.2 399.7,490.2 399.7,451.9 399.7,451.9 405.1,451.9 		"/>
		<polygon class="st0" points="405.1,364.4 405.1,402.7 399.7,402.7 399.7,364.4 399.7,364.3 405.1,364.3 		"/>
		<rect x="398.8" y="276.7" class="st0" width="5.5" height="38.5"/>
		<rect x="398.8" y="188.8" class="st0" width="5.5" height="38.4"/>
		<rect x="329.8" y="320.5" class="st0" width="5.5" height="38.4"/>
		<polygon class="st0" points="329.6,232.7 329.6,232.4 335.1,232.4 335.1,232.7 335.1,271.2 335.1,271.3 329.6,271.3 329.6,271.2 
					"/>
		<rect x="328.5" y="495.6" class="st0" width="5.5" height="38.4"/>
		<rect x="328.5" y="408.1" class="st0" width="5.5" height="38.4"/>
		<path class="st0" d="M415.1,490.2c-2.4,1.7-4.7,3.5-7.1,5.4h-74h-5.5h-65v-5.4h136.1h5.5H415.1z"/>
		<path class="st0" d="M461.9,446.5h5.5h34.4c-5,2-9.7,3.6-14.5,5.4h-82.2h-5.5H263.5v-5.4h65h5.5H461.9z"/>
		<path class="st0" d="M566.7,408.1h-99.4h-5.5H334h-5.5h-65v-5.4h136.1h5.5h130.1h5.5h32.4C571.2,404.4,569.1,406.2,566.7,408.1z"
			/>
		<path class="st0" d="M263.5,359h66.3h5.5h127.9h5.5h132.8h3c-0.7,1.8-1.5,3.6-2.3,5.4h-61.4h-5.5H405.1h-5.5H263.5V359z"/>
		<path class="st0" d="M625.3,315.1c-1.2,1.7-2.5,3.5-3.6,5.4h-14.7h-5.5H468.7h-5.5H335.3h-5.5h-66.3v-5.4h135.3h5.5h130.1h5.5
			H625.3z"/>
		<path class="st0" d="M263.5,271.3h66.1h5.5h127.9h5.5h132.8h5.5h70.2c-3,1.7-6.1,3.5-9.1,5.4H539.9h-5.5H404.3h-5.5H263.5V271.3z"
			/>
		<path class="st0" d="M263.5,232.4v-5.2h135.3h5.5h130.1h5.5h131.5h5.5H799h5.5h24.2v5.2c-6.9-0.3-15.3-0.5-24.9,0H606.6h-5.5
			H468.4h-5.5H335.1h-5.5H263.5z"/>
	</g>
	<g>
		<polyline class="st1" points="828.7,232.4 828.7,227.2 828.7,188.8 804.5,188.8 799,188.8 676.9,188.8 671.4,188.8 539.9,188.8 
			534.4,188.8 404.3,188.8 398.8,188.8 263.5,188.8 263.5,227.2 263.5,232.4 263.5,271.3 263.5,276.7 263.5,315.1 263.5,320.5 
			263.5,359 263.5,364.3 263.5,402.7 263.5,408.1 263.5,446.5 263.5,451.9 263.5,490.2 263.5,495.6 263.5,534 263.5,539.4 
			263.5,577.8 263.5,583.2 263.5,585.5 		"/>
		<polyline class="st1" points="263.5,227.2 398.8,227.2 404.3,227.2 534.4,227.2 539.9,227.2 671.4,227.2 676.9,227.2 799,227.2 
			804.5,227.2 828.7,227.2 		"/>
		<polyline class="st1" points="263.5,271.3 329.6,271.3 335.1,271.3 462.9,271.3 468.4,271.3 601.2,271.3 606.6,271.3 676.9,271.3 
			676.9,271.3 		"/>
		<polyline class="st1" points="263.5,276.7 398.8,276.7 404.3,276.7 534.4,276.7 539.9,276.7 667.8,276.7 		"/>
		<polyline class="st1" points="263.5,315.1 398.8,315.1 404.3,315.1 534.4,315.1 539.9,315.1 625.3,315.1 		"/>
		<polyline class="st1" points="263.5,320.5 329.8,320.5 335.3,320.5 463.2,320.5 468.7,320.5 601.4,320.5 606.9,320.5 621.6,320.5 
					"/>
		<polyline class="st1" points="263.3,359 263.5,359 329.8,359 335.3,359 463.2,359 468.7,359 601.4,359 604.4,359 		"/>
		<polyline class="st1" points="263.3,364.3 263.5,364.3 399.7,364.3 405.1,364.3 535.3,364.3 540.7,364.3 602.1,364.3 		"/>
		<polyline class="st1" points="263.5,402.7 399.7,402.7 405.1,402.7 535.3,402.7 540.7,402.7 573.1,402.7 		"/>
		<polyline class="st1" points="263.5,408.1 328.5,408.1 334,408.1 461.9,408.1 467.4,408.1 566.7,408.1 		"/>
		<polyline class="st1" points="263.5,446.5 328.5,446.5 334,446.5 461.9,446.5 467.4,446.5 501.8,446.5 		"/>
		<polyline class="st1" points="263.5,451.9 399.7,451.9 405.1,451.9 487.4,451.9 		"/>
		<path class="st1" d="M606.9,352.4c-0.8,2.2-1.6,4.4-2.5,6.6c-0.7,1.8-1.5,3.6-2.3,5.4c-3.1,6.8-7.1,14-13.7,22.3
			c-2.8,3.6-7.3,9-15.3,16.1c-1.9,1.7-4,3.5-6.4,5.4c-6.4,5.2-14.5,11.1-24.8,17.6c-17,10.8-29.2,16.5-40.2,20.8
			c-5,2-9.7,3.6-14.5,5.4c-12.4,4.5-25.2,9.3-44.1,20.4c-8.8,5.1-18.3,10.8-28.1,17.9c-2.4,1.7-4.7,3.5-7.1,5.4
			c-11.1,8.8-22.1,19.5-32.3,33.5c-1.2,1.6-2.3,3.3-3.4,4.9c-1.2,1.8-2.4,3.6-3.5,5.4c-9,14.3-14.5,27.4-18.1,38.4
			c-0.6,1.9-1.2,3.6-1.7,5.4c-0.2,0.8-0.4,1.6-0.7,2.3"/>
		<path class="st1" d="M263.5,232.4h66.1h5.5h127.9h5.5h132.8h5.5h197.2h24.9c-6.9-0.3-15.3-0.5-24.9,0
			c-24.7,1.2-57.3,6.3-92.2,21.9c-10.7,4.8-22.7,10.2-34.8,17c-3,1.7-6.1,3.5-9.1,5.4c-15.6,9.7-30.7,22-42.5,38.5h0
			c-1.2,1.7-2.5,3.5-3.6,5.4c-1.9,3-3.7,6.1-5.4,9.3c-4.2,8.2-6.7,15.4-9.3,22.5"/>
		<line class="st1" x1="398.8" y1="188.8" x2="398.8" y2="227.2"/>
		<line class="st1" x1="404.3" y1="188.8" x2="404.3" y2="227.2"/>
		<line class="st1" x1="534.4" y1="188.8" x2="534.4" y2="227.2"/>
		<line class="st1" x1="539.9" y1="188.8" x2="539.9" y2="227.2"/>
		<line class="st1" x1="671.4" y1="188.8" x2="671.4" y2="227.2"/>
		<line class="st1" x1="676.9" y1="188.8" x2="676.9" y2="227.2"/>
		<line class="st1" x1="799" y1="188.8" x2="799" y2="227.2"/>
		<line class="st1" x1="804.5" y1="188.8" x2="804.5" y2="227.2"/>
		<line class="st1" x1="398.8" y1="276.7" x2="398.8" y2="315.1"/>
		<line class="st1" x1="404.3" y1="276.7" x2="404.3" y2="315.1"/>
		<line class="st1" x1="534.4" y1="276.7" x2="534.4" y2="315.1"/>
		<line class="st1" x1="539.9" y1="276.7" x2="539.9" y2="315.1"/>
		<polyline class="st1" points="399.7,364.4 399.7,402.7 399.7,402.9 		"/>
		<polyline class="st1" points="405.1,364.4 405.1,402.7 405.1,402.9 		"/>
		<polyline class="st1" points="535.3,364.4 535.3,402.7 535.3,402.9 		"/>
		<polyline class="st1" points="540.7,364.4 540.7,402.7 540.7,402.9 		"/>
		<polyline class="st1" points="263.5,490.2 399.7,490.2 405.1,490.2 415.1,490.2 415.1,490.2 		"/>
		<polyline class="st1" points="263.5,495.6 328.5,495.6 334,495.6 408,495.6 		"/>
		<polyline class="st1" points="399.7,451.9 399.7,490.2 399.7,490.4 		"/>
		<polyline class="st1" points="405.1,451.9 405.1,490.2 405.1,490.4 		"/>
		<line class="st1" x1="329.6" y1="232.7" x2="329.6" y2="271.2"/>
		<line class="st1" x1="335.1" y1="232.7" x2="335.1" y2="271.2"/>
		<line class="st1" x1="462.9" y1="232.7" x2="462.9" y2="271.2"/>
		<line class="st1" x1="468.4" y1="232.7" x2="468.4" y2="271.2"/>
		<line class="st1" x1="601.2" y1="232.7" x2="601.2" y2="271.2"/>
		<line class="st1" x1="606.6" y1="232.7" x2="606.6" y2="271.2"/>
		<line class="st1" x1="329.8" y1="320.5" x2="329.8" y2="359"/>
		<line class="st1" x1="335.3" y1="320.5" x2="335.3" y2="359"/>
		<line class="st1" x1="463.2" y1="320.5" x2="463.2" y2="359"/>
		<line class="st1" x1="468.7" y1="320.5" x2="468.7" y2="359"/>
		<polyline class="st1" points="328.5,408.1 328.5,446.5 328.5,446.6 		"/>
		<polyline class="st1" points="334,408.1 334,446.5 334,446.6 		"/>
		<polyline class="st1" points="263.5,534 328.5,534 334,534 372.2,534 		"/>
		<polyline class="st1" points="263.5,539.4 368.7,539.4 368.7,539.4 		"/>
		<polyline class="st1" points="328.5,495.6 328.5,534 328.5,534.1 		"/>
		<polyline class="st1" points="334,495.6 334,534 334,534.1 		"/>
		<polyline class="st1" points="263.5,577.8 350.6,577.8 350.7,577.8 		"/>
		<polyline class="st1" points="263.5,583.2 349,583.2 349,583.2 		"/>
		<polyline class="st1" points="461.9,408.1 461.9,446.5 461.9,446.6 		"/>
		<polyline class="st1" points="467.4,408.1 467.4,446.5 467.4,446.6 		"/>
		<line class="st1" x1="601.4" y1="320.5" x2="601.4" y2="359"/>
		<polyline class="st1" points="606.9,320.5 606.9,352.4 606.9,352.4 		"/>
	</g>
</g>
<path class="st1" d="M711.6,494.4c-15,22.9-32.3,35.3-57.3,19c-25-16.3-79.9-82.5-64.9-105.4s92,7.7,117,24
	C731.2,448.4,726.5,471.5,711.6,494.4z"/>
<g>
	<path class="st2" d="M800,560.6c-1.5,2.3-4.6,3-6.9,1.5l-77.8-49.5c-2.3-1.5-3-4.6-1.5-6.9l8.3-13c1.5-2.3,4.6-3,6.9-1.5l77.8,49.5
		c2.3,1.5,3,4.6,1.5,6.9L800,560.6z"/>
</g>
<line class="st2" x1="718" y1="499.1" x2="711.3" y2="494.9"/>
</svg>
