<?xml version="1.0" encoding="utf-8"?>
<!-- Generator: Adobe Illustrator 22.1.0, SVG Export Plug-In . SVG Version: 6.00 Build 0)  -->
<svg version="1.1" id="Слой_1" xmlns="http://www.w3.org/2000/svg" xmlns:xlink="http://www.w3.org/1999/xlink" x="0px" y="0px"
	 viewBox="0 0 1096 776" style="enable-background:new 0 0 1096 776;" xml:space="preserve">
<style type="text/css">
	.st0{fill:#414141;}
	.st1{fill:none;stroke:#414141;stroke-width:2;stroke-miterlimit:10;}
</style>
<image style="display:none;overflow:visible;enable-background:new    ;" width="828" height="670" xlink:href="../../../Downloads/Planirovka-odnojetazhnyh-kottedzhej-2.jpg"  transform="matrix(1 0 0 1 132 55)">
</image>
<g id="XMLID_1_">
	<g>
		<polygon class="st0" points="877.5,194.9 877.5,606 866.2,606 866.2,207.3 723.3,207.3 723.3,480.8 710.5,480.8 710.5,207.3 
			559.5,207.3 559.5,480.8 547.9,480.8 547.9,207.3 397.8,207.3 397.8,480.8 384.9,480.8 384.9,207.3 242.5,207.3 242.5,606 
			230.6,606 230.6,194.9 		"/>
		<rect x="812.3" y="600.9" class="st0" width="7.5" height="5.1"/>
		<rect x="764.8" y="557.5" class="st0" width="51.3" height="13.6"/>
		<rect x="764.8" y="539.3" class="st0" width="51.3" height="13.6"/>
		<rect x="764.8" y="521" class="st0" width="51.3" height="13.6"/>
		<rect x="761.2" y="601.2" class="st0" width="7.5" height="4.8"/>
		<rect x="703.7" y="599.4" class="st0" width="19.7" height="6.6"/>
		<rect x="377.8" y="599.4" class="st0" width="19.7" height="6.6"/>
		<rect x="328.8" y="600.9" class="st0" width="7.5" height="5.1"/>
		<rect x="281.4" y="559.8" class="st0" width="51.3" height="13.6"/>
		<rect x="281.4" y="541.6" class="st0" width="51.3" height="13.6"/>
		<rect x="281.4" y="523.3" class="st0" width="51.3" height="13.6"/>
		<rect x="277.7" y="601.2" class="st0" width="7.5" height="4.8"/>
	</g>
	<g>
		<polyline class="st1" points="723.4,599.4 738.8,599.4 738.2,579.2 		"/>
		<line class="st1" x1="397.5" y1="599.4" x2="703.7" y2="599.4"/>
		<polyline class="st1" points="361.6,579.2 361,579.2 361.6,599.4 377.8,599.4 		"/>
		<polygon class="st1" points="738.2,579.2 738.8,579.2 738.8,552.5 700.4,558 401,558 361.6,552.5 361.6,579.2 		"/>
		<polyline class="st1" points="738.8,507.5 738.8,480.8 723.3,480.8 710.5,480.8 559.5,480.8 547.9,480.8 397.8,480.8 384.9,480.8 
			361.6,480.8 361.6,507.5 		"/>
		<polygon class="st1" points="401.8,521.7 361.6,521.7 361.6,548.4 401.8,553.5 		"/>
		<polyline class="st1" points="413.5,552.5 408,552.5 408,544.7 		"/>
		<polyline class="st1" points="408,544.7 408,523.1 408,516.9 361.6,516.9 361.6,508.7 361.6,507.5 		"/>
		<polygon class="st1" points="698.7,521.7 738.8,521.7 738.8,548.4 698.7,553.5 		"/>
		<polyline class="st1" points="685.6,552.5 692.5,552.5 692.5,544.7 		"/>
		<polyline class="st1" points="692.5,544.7 692.5,523.1 692.5,516.9 738.8,516.9 738.8,510.1 738.8,507.5 		"/>
		<polyline class="st1" points="413.5,552.5 423.4,552.5 677.1,552.5 685.6,552.5 		"/>
		<polyline class="st1" points="377.8,606 377.8,599.4 397.5,599.4 397.5,606 		"/>
		<polyline class="st1" points="703.7,606 703.7,599.4 723.4,599.4 723.4,606 		"/>
		<polyline class="st1" points="336.3,600.9 338.7,600.9 338.7,516.5 275.4,516.5 275.4,600.9 285.1,600.9 328.8,600.9 		"/>
		<polygon class="st1" points="819.8,599.6 822.2,599.6 822.2,515.3 758.9,515.3 758.9,599.6 768.7,599.6 		"/>
		<rect x="281.4" y="523.3" class="st1" width="51.3" height="13.6"/>
		<rect x="281.4" y="541.6" class="st1" width="51.3" height="13.6"/>
		<rect x="281.4" y="559.8" class="st1" width="51.3" height="13.6"/>
		<rect x="764.8" y="521" class="st1" width="51.3" height="13.6"/>
		<rect x="764.8" y="539.3" class="st1" width="51.3" height="13.6"/>
		<rect x="764.8" y="557.5" class="st1" width="51.3" height="13.6"/>
		<polyline class="st1" points="877.5,606 877.5,194.9 230.6,194.9 230.6,606 		"/>
		<polyline class="st1" points="277.7,606 277.7,601.2 285.1,601.2 285.1,606 		"/>
		<polyline class="st1" points="328.8,606 328.8,600.9 336.3,600.9 336.3,606 		"/>
		<polyline class="st1" points="761.2,606 761.2,601.2 768.7,601.2 768.7,606 		"/>
		<polyline class="st1" points="812.3,606 812.3,600.9 819.8,600.9 819.8,606 		"/>
		<polyline class="st1" points="242.5,606 242.5,207.3 384.9,207.3 384.9,480.8 		"/>
		<polyline class="st1" points="397.8,480.8 397.8,207.3 547.9,207.3 547.9,480.8 		"/>
		<polyline class="st1" points="559.5,480.8 559.5,207.3 710.5,207.3 710.5,480.8 		"/>
		<polyline class="st1" points="723.3,480.8 723.3,207.3 866.2,207.3 866.2,606 		"/>
		<polyline class="st1" points="186,606 230.6,606 242.5,606 277.7,606 285.1,606 328.8,606 336.3,606 377.8,606 397.5,606 
			703.7,606 723.4,606 761.2,606 768.7,606 812.3,606 819.8,606 866.2,606 877.5,606 914.7,606 		"/>
	</g>
</g>
</svg>
