<?xml version="1.0" encoding="utf-8"?>
<!-- Generator: Adobe Illustrator 17.0.0, SVG Export Plug-In . SVG Version: 6.00 Build 0)  -->
<!DOCTYPE svg PUBLIC "-//W3C//DTD SVG 1.1//EN" "http://www.w3.org/Graphics/SVG/1.1/DTD/svg11.dtd">
<svg version="1.1" id="Слой_1" xmlns="http://www.w3.org/2000/svg" xmlns:xlink="http://www.w3.org/1999/xlink" x="0px" y="0px"
	 width="14.173px" height="14.173px" viewBox="0 0 14.173 14.173" enable-background="new 0 0 14.173 14.173" xml:space="preserve">
<g>
	<path fill="#C5A37D" d="M13.3,0H8.426C7.945,0,7.553,0.392,7.553,0.874s0.392,0.874,0.874,0.874h2.764L6.579,6.358
		C6.414,6.523,6.323,6.743,6.323,6.976c0,0.233,0.091,0.453,0.256,0.618C6.744,7.759,6.964,7.85,7.197,7.85
		c0.233,0,0.453-0.091,0.618-0.256l4.611-4.611v2.764c0,0.482,0.392,0.874,0.874,0.874s0.874-0.392,0.874-0.874V0.874
		C14.173,0.392,13.781,0,13.3,0z"/>
	<path fill="#C5A37D" d="M10.041,12.676H1.498V4.133h6.425L9.42,2.635H0.749C0.335,2.635,0,2.97,0,3.384v10.041
		c0,0.414,0.335,0.749,0.749,0.749h10.041c0.414,0,0.749-0.335,0.749-0.749V4.753L10.041,6.25V12.676z"/>
</g>
</svg>
