<?xml version="1.0" encoding="utf-8"?>
<!-- Generator: Adobe Illustrator 22.1.0, SVG Export Plug-In . SVG Version: 6.00 Build 0)  -->
<svg version="1.1" id="Слой_1" xmlns="http://www.w3.org/2000/svg" xmlns:xlink="http://www.w3.org/1999/xlink" x="0px" y="0px"
	 viewBox="0 0 102 102.4" style="enable-background:new 0 0 102 102.4;" xml:space="preserve">
<style type="text/css">
	.st0{fill:none;stroke:#FF6B00;stroke-width:2;stroke-miterlimit:10;}
	.st1{fill:none;stroke:#FF6B00;stroke-miterlimit:10;}
</style>
<g>
	<path class="st0" d="M100.8,91.3c0,5.5-4.5,10-10,10h-80c-5.5,0-10-4.5-10-10v-80c0-5.5,4.5-10,10-10h80c5.5,0,10,4.5,10,10V91.3z"
		/>
</g>
<path class="st1" d="M11.1,89.1c0-8.3,4.2-11.4,11.3-15.5"/>
<path class="st1" d="M46.9,74.5l0.3,0.2c5.6,3.9,9.5,6.7,9.5,14.4"/>
<path class="st1" d="M34.1,74.1c-6.9,0-12.7-5.7-12.7-12.7S27,48.7,34.1,48.7s12.7,5.7,12.7,12.7C46.7,71.4,38.4,74.1,34.1,74.1z"/>
<path class="st1" d="M52.4,76c1.5-1.2,1.4-1.3,3.3-2.4"/>
<path class="st1" d="M44.4,89.1"/>
<path class="st1" d="M80.2,74.5l0.3,0.2C86,78.5,90,81.3,90,89.1"/>
<path class="st1" d="M67.4,74.1c-6.9,0-12.7-5.7-12.7-12.7s5.7-12.7,12.7-12.7s12.7,5.7,12.7,12.7C80,71.4,71.7,74.1,67.4,74.1z"/>
<path class="st1" d="M28.2,61.2"/>
<path class="st1" d="M73.9,61.2"/>
<path class="st1" d="M51.2,40.8c-6.9,0-12.7-5.7-12.7-12.7s5.7-12.6,12.7-12.6s12.7,5.7,12.7,12.7C63.8,38.1,55.5,40.8,51.2,40.8z"
	/>
<path class="st1" d="M29.7,47.4c1.9-2.8,5-4.8,8.9-7.1"/>
<path class="st1" d="M28.2,50.1"/>
<path class="st1" d="M27.3,55.7"/>
<path class="st1" d="M73,55.7"/>
<path class="st1" d="M72.2,50.4"/>
<path class="st1" d="M63.1,41.2l0.3,0.2c2.9,2,5.3,3.7,7,5.9"/>
</svg>
