<?xml version="1.0" encoding="utf-8"?>
<!-- Generator: Adobe Illustrator 22.1.0, SVG Export Plug-In . SVG Version: 6.00 Build 0)  -->
<svg version="1.1" id="Слой_1" xmlns="http://www.w3.org/2000/svg" xmlns:xlink="http://www.w3.org/1999/xlink" x="0px" y="0px"
	 viewBox="0 0 102 102" style="enable-background:new 0 0 102 102;" xml:space="preserve">
<style type="text/css">
	.st0{fill:none;stroke:#FF6B00;stroke-width:2;stroke-miterlimit:10;}
	.st1{fill:none;stroke:#FF6B00;stroke-miterlimit:10;}
</style>
<g>
	<path class="st0" d="M101.2,91.2c0,5.5-4.5,10-10,10h-80c-5.5,0-10-4.5-10-10v-80c0-5.5,4.5-10,10-10h80c5.5,0,10,4.5,10,10V91.2z"
		/>
</g>
<rect x="17.1" y="17.2" class="st1" width="68.7" height="67.8"/>
<line class="st1" x1="17.1" y1="46.7" x2="38" y2="46.7"/>
<line class="st1" x1="37.5" y1="50.6" x2="37.5" y2="46.3"/>
<line class="st1" x1="37.5" y1="69.3" x2="37.5" y2="55.3"/>
<line class="st1" x1="37.5" y1="84.6" x2="37.5" y2="74"/>
<line class="st1" x1="59.3" y1="84.6" x2="59.3" y2="46.7"/>
<line class="st1" x1="62.9" y1="46.3" x2="58.8" y2="46.3"/>
<line class="st1" x1="85.4" y1="46.3" x2="69.1" y2="46.3"/>
<line class="st1" x1="86.2" y1="56.7" x2="74.1" y2="56.7"/>
<line class="st1" x1="86.2" y1="65.4" x2="74.1" y2="65.4"/>
<line class="st1" x1="86.2" y1="74.1" x2="74.1" y2="74.1"/>
<line class="st1" x1="74.1" y1="58.9" x2="74.1" y2="54.6"/>
<line class="st1" x1="74.1" y1="67.6" x2="74.1" y2="63.3"/>
<line class="st1" x1="74.1" y1="76.3" x2="74.1" y2="72"/>
<line class="st1" x1="37.5" y1="17.6" x2="37.5" y2="28"/>
<line class="st1" x1="16.7" y1="28" x2="30.6" y2="28"/>
<line class="st1" x1="59.3" y1="40.2" x2="59.3" y2="17.6"/>
<line class="st1" x1="17.5" y1="65.4" x2="37.5" y2="65.4"/>
</svg>
