<?xml version="1.0" encoding="utf-8"?>
<!-- Generator: Adobe Illustrator 22.1.0, SVG Export Plug-In . SVG Version: 6.00 Build 0)  -->
<svg version="1.1" id="Слой_1" xmlns="http://www.w3.org/2000/svg" xmlns:xlink="http://www.w3.org/1999/xlink" x="0px" y="0px"
	 viewBox="0 0 1096 776" style="enable-background:new 0 0 1096 776;" xml:space="preserve">
<style type="text/css">
	.st0{fill:none;stroke:#414141;stroke-width:5;stroke-miterlimit:10;}
	.st1{fill:none;stroke:#414141;stroke-width:4;stroke-miterlimit:10;}
	.st2{fill:none;stroke:#000000;stroke-width:5;stroke-miterlimit:10;}
	.st3{fill:#414141;}
	.st4{fill:none;stroke:#414141;stroke-width:2;stroke-miterlimit:10;}
	.st5{fill:none;stroke:#414141;stroke-width:9;stroke-miterlimit:10;}
	.st6{fill:none;stroke:#414141;stroke-miterlimit:10;}
	.st7{fill:#414141;stroke:#414141;stroke-miterlimit:10;}
</style>
<image style="display:none;overflow:visible;enable-background:new    ;" width="828" height="670" xlink:href="../../../Downloads/Planirovka-odnojetazhnyh-kottedzhej-2.jpg"  transform="matrix(1 0 0 1 132 55)">
</image>
<line class="st0" x1="269" y1="437" x2="829" y2="437"/>
<line class="st1" x1="269" y1="588" x2="269" y2="224"/>
<line class="st1" x1="829" y1="588" x2="829" y2="224"/>
<path class="st1" d="M829,224"/>
<path class="st1" d="M269,224"/>
<line class="st1" x1="253" y1="588" x2="844" y2="588"/>
<line class="st1" x1="269" y1="224" x2="269" y2="189"/>
<line class="st1" x1="829" y1="224" x2="829" y2="189"/>
<line class="st1" x1="269" y1="189" x2="829" y2="189"/>
<path class="st2" d="M560,388.3"/>
<g id="XMLID_1_">
	<g>
		<path class="st3" d="M497,394.2h126c0,13.4-28.2,37.8-63,37.8S497,407.6,497,394.2z"/>
	</g>
	<g>
		<path class="st0" d="M623,394.2H497c0,13.4,28.2,37.8,63,37.8S623,407.6,623,394.2z"/>
	</g>
</g>
<line class="st4" x1="359.3" y1="437" x2="359.3" y2="588"/>
<line class="st4" x1="474" y1="437" x2="474" y2="588"/>
<line class="st4" x1="628.7" y1="437" x2="628.7" y2="588"/>
<line class="st4" x1="474" y1="466.7" x2="628.7" y2="466.7"/>
<line class="st4" x1="269" y1="466.7" x2="359.3" y2="466.7"/>
<line class="st4" x1="628.7" y1="466.7" x2="829" y2="466.7"/>
<path class="st4" d="M269,496.3"/>
<line class="st4" x1="474" y1="496.7" x2="628.7" y2="496.7"/>
<line class="st4" x1="474" y1="526.7" x2="628.7" y2="526.7"/>
<line class="st4" x1="474" y1="556" x2="628.7" y2="556"/>
<circle class="st5" cx="417.7" cy="514.7" r="37.8"/>
<polyline class="st6" points="359.3,454 390.4,458.1 418.1,459.6 444.4,458 474,454 "/>
<line class="st6" x1="387.8" y1="437" x2="387.8" y2="457.8"/>
<rect x="406.3" y="442.8" class="st7" width="30.2" height="11.2"/>
<ellipse class="st7" cx="448.5" cy="514.8" rx="4" ry="13.2"/>
<line class="st4" x1="279.5" y1="478" x2="279.5" y2="501.5"/>
<line class="st4" x1="298" y1="454" x2="332" y2="454"/>
<line class="st4" x1="527" y1="454" x2="579.5" y2="454"/>
<line class="st4" x1="527" y1="482" x2="579.5" y2="482"/>
<line class="st4" x1="527.7" y1="511.7" x2="580.2" y2="511.7"/>
<line class="st4" x1="527.7" y1="541.3" x2="580.2" y2="541.3"/>
<line class="st4" x1="528" y1="571" x2="580.5" y2="571"/>
<line class="st4" x1="728.8" y1="437" x2="728.8" y2="588"/>
<line class="st4" x1="721.3" y1="478" x2="721.3" y2="501.5"/>
<line class="st4" x1="663.3" y1="454" x2="698" y2="454"/>
<line class="st4" x1="760.7" y1="454" x2="792.7" y2="454"/>
<line class="st4" x1="736" y1="478" x2="736" y2="501.5"/>
<line class="st6" x1="359.3" y1="571" x2="474" y2="571"/>
<line class="st0" x1="560" y1="392" x2="560" y2="372.2"/>
<line class="st0" x1="560" y1="392" x2="571.5" y2="385"/>
<rect x="455.4" y="235" class="st6" width="207.9" height="127"/>
<rect x="462" y="242" class="st6" width="194.5" height="113.5"/>
</svg>
