<?xml version="1.0" encoding="utf-8"?>
<!-- Generator: Adobe Illustrator 22.1.0, SVG Export Plug-In . SVG Version: 6.00 Build 0)  -->
<svg version="1.1" id="Слой_2_1_" xmlns="http://www.w3.org/2000/svg" xmlns:xlink="http://www.w3.org/1999/xlink" x="0px"
	 y="0px" viewBox="0 0 167 41" style="enable-background:new 0 0 167 41;" xml:space="preserve">
<style type="text/css">
	.st0{fill:#FFFFFF;}
	.st1{font-family:'ArialNarrow';}
	.st2{font-size:10.3705px;}
</style>
<g>
	<path class="st0" d="M47,31h-3.8v-9.1c0-5.4-2.3-8.1-7-8.1c-2.1,0-3.7,0.7-5,2s-1.9,3-1.9,5.1c0,2.3,0.8,4.2,2.4,5.4
		c1.3,1,2.8,1.6,4.7,1.6c2,0,3.8-0.8,5.4-2.3v3.9c-1.6,1.3-3.6,2-5.9,2c-2.9,0-5.3-1-7.3-2.9s-3-4.4-3-7.5c0-3.2,1-5.8,3.1-7.8
		c2.1-2.1,4.7-3.1,7.8-3.1c3,0,5.4,0.9,7.3,2.7c2.1,2,3.2,5.1,3.2,9.1V31z"/>
	<g>
		<path class="st0" d="M59.8,28c-0.6,0-1.2-0.1-1.7-0.2c-0.6-0.2-1.1-0.4-1.3-0.5c-1.8-1-2.7-2.9-2.7-5.8V10.6h-3.7v10.9
			c0,1.8,0.2,3.4,0.7,4.6c0.6,1.7,1.7,3,3.1,4c1.2,0.8,1.9,1.1,3.8,1.3c1.8,0.1,3.7,0.1,4.6,0.1v-3.7C62.2,27.8,61,28.1,59.8,28z"/>
	</g>
	<path class="st0" d="M92.8,21.1c0,3.1-1.1,5.7-3.3,7.6c-2,1.8-4.4,2.7-7.3,2.7c-2.3,0-4.2-0.7-5.7-2v-3.9c0.8,0.8,1.7,1.4,2.6,1.7
		c0.9,0.4,1.8,0.6,2.7,0.6c2.1,0,3.8-0.6,5.2-1.9c1.3-1.3,2-2.9,2-4.9c0-2.2-0.7-3.9-2-5.3c-1.3-1.3-3-2-5-2c-2.4,0-4.2,0.9-5.4,2.6
		c-1,1.5-1.6,3.5-1.6,6.1v17.8h-3.7V22.1c0-4.3,1.2-7.5,3.6-9.6c1.9-1.6,4.2-2.4,7.1-2.4c3,0,5.5,1,7.7,3
		C91.7,15.1,92.8,17.8,92.8,21.1z"/>
	<path class="st0" d="M105.6,13.7h-0.5c-3.9,0-5.8,2.5-5.8,7.6V31h-3.7V10.6h3.6v2.3c0.8-1.1,1.8-1.9,2.9-2.3c0.8-0.3,1.8-0.4,3-0.4
		h0.6L105.6,13.7L105.6,13.7z"/>
	<path class="st0" d="M111.8,6c0,0.7-0.2,1.2-0.6,1.6s-1,0.6-1.6,0.6c-0.7,0-1.2-0.2-1.6-0.6s-0.6-1-0.6-1.6s0.2-1.1,0.5-1.5
		c0.4-0.5,1-0.8,1.8-0.8C111,3.7,111.8,4.5,111.8,6z M111.4,31h-3.8V10.6h3.8V31z"/>
	<path class="st0" d="M154.9,21.9c0,1.9-0.7,3.8-2.1,5.6c-0.8,1.1-1.8,1.9-3,2.6c-0.8,0.5-1.7,0.8-2.6,1c-0.9,0.2-1.9,0.3-2.9,0.3
		c-1.6,0-3.2-0.4-4.8-1.1c-1.8-0.9-3.3-2.2-4.3-3.9c-1-1.7-1.5-3.6-1.5-5.7c0-3,1-5.5,3-7.6c2-2,4.5-3.1,7.6-3.1
		c2.1,0,4,0.5,5.8,1.6s3.1,2.7,4.1,4.9l-13.8,7.7l-1.5-3l10.1-5.6c-0.7-0.8-1.4-1.3-2.2-1.5c-0.8-0.3-1.7-0.4-2.5-0.4
		c-2,0-3.6,0.7-4.9,2c-1.2,1.3-1.8,3-1.8,5.1c0,2.8,1,4.8,3.1,6.1c1,0.7,2.2,1,3.6,1c1.1,0,2-0.1,2.7-0.3c0.3-0.1,0.7-0.3,1.2-0.6
		c2.1-1.1,3.1-3,3.1-5.5L154.9,21.9z"/>
</g>
<g>
	<polygon class="st0" points="2.2,10.7 2.2,31 6.2,31 6.2,12.5 6.2,10.8 6.2,0.8 2.2,0.8 	"/>
	<path class="st0" d="M21.5,18c-0.8-1.3-1.9-2.3-3.2-3c1-0.6,1.7-1.3,2.1-2c0.6-1,0.9-2.3,0.9-3.8c0-2.2-0.8-4.2-2.4-5.7
		c-1.8-1.8-4.2-2.7-7.3-2.7l0,0H7.7v3.7H12c1.5,0,2.7,0.4,3.7,1.2c1,0.9,1.6,2.1,1.6,3.5s-0.6,2.5-1.8,3.4c-1,0.7-2.3,1.1-3.8,1.1
		h-4v3.7h5.5c1.6,0,3,0.4,4,1.3s1.5,2.1,1.5,3.6c0,2.2-0.8,3.6-2.3,4.3c-0.8,0.4-2,0.6-3.5,0.6H7.7V31H13c2.9,0,5.1-0.7,6.8-2.1
		c1.9-1.5,2.8-3.6,2.8-6.4C22.6,20.8,22.2,19.3,21.5,18z"/>
</g>
<path class="st0" d="M125.4,27.4c-0.2,0-0.4,0-0.6,0c-0.9-0.1-1.8-0.3-2.6-0.6c-0.6-0.2-1.1-0.6-1.6-0.9V26
	c-0.2-0.2-0.4-0.3-0.6-0.5c-1.2-1.2-1.8-2.8-1.8-4.6c0-1.7,0.5-3.2,1.6-4.4c1.3-1.5,3.1-2.2,5.5-2.3c1.9,0,3.7,0.8,5.3,2.3v-3.9
	c-1.4-1.1-3.2-1.8-5.1-1.9c-1.2,0-2.3,0.1-3.4,0.4c-1.2,0.3-2.3,0.8-3.4,1.5c-2.9,1.9-4.3,4.6-4.3,8.3V21l0,0c0,0-0.3,3.6,2.6,6.9
	c0.5,0.6,1.1,1,1.6,1.4c1,0.8,2.4,1.4,4.1,1.6C124.1,31,125,31,125,31l0,0c0.2,0,0.5,0,0.7,0c1.9-0.1,3.7-0.8,5.1-1.9v-3.9
	C129.2,26.6,127.4,27.4,125.4,27.4z"/>
<text transform="matrix(1.2537 0 0 1 150.5884 10.1235)" class="st0 st1 st2">®</text>
<rect x="64.1" y="10.6" class="st0" width="3.8" height="20.8"/>
</svg>
