<?xml version="1.0" encoding="utf-8"?>
<!-- Generator: Adobe Illustrator 22.1.0, SVG Export Plug-In . SVG Version: 6.00 Build 0)  -->
<svg version="1.1" xmlns="http://www.w3.org/2000/svg" xmlns:xlink="http://www.w3.org/1999/xlink" x="0px" y="0px"
	 viewBox="0 0 1096 776" style="enable-background:new 0 0 1096 776;" xml:space="preserve">
<style type="text/css">
	.st0{fill:none;stroke:#000000;stroke-width:2;stroke-miterlimit:10;}
</style>
<g id="Слой_1">
</g>
<g id="Слой_2">
	<line class="st0" x1="456.4" y1="289.1" x2="422.7" y2="270.1"/>
	<line class="st0" x1="422.7" y1="270.1" x2="384.9" y2="412.6"/>
	<line class="st0" x1="456.4" y1="289.1" x2="496" y2="454.5"/>
	<line class="st0" x1="384.9" y1="412.6" x2="422.4" y2="426.8"/>
	<line class="st0" x1="496" y1="454.5" x2="465.3" y2="443"/>
	<line class="st0" x1="422.4" y1="426.8" x2="426.2" y2="406.8"/>
	<line class="st0" x1="465.3" y1="443" x2="461.1" y2="421.1"/>
	<line class="st0" x1="426.2" y1="406.8" x2="461.1" y2="421.1"/>
	<line class="st0" x1="431.4" y1="376.6" x2="453.2" y2="386"/>
	<line class="st0" x1="454.2" y1="384.7" x2="453.2" y2="386"/>
	<line class="st0" x1="441" y1="324.9" x2="431.4" y2="376.6"/>
	<line class="st0" x1="454.2" y1="384.7" x2="441" y2="324.9"/>
	<line class="st0" x1="422.7" y1="270.1" x2="387.8" y2="281.1"/>
	<line class="st0" x1="387.8" y1="281.1" x2="349.2" y2="420.9"/>
	<line class="st0" x1="384.9" y1="412.6" x2="349.2" y2="420.9"/>
	<line class="st0" x1="422.4" y1="426.8" x2="386.7" y2="435.3"/>
	<line class="st0" x1="349.2" y1="420.9" x2="386.7" y2="435.3"/>
	<line class="st0" x1="465.3" y1="443" x2="431.4" y2="449.9"/>
	<line class="st0" x1="495.4" y1="454.3" x2="461.1" y2="461.1"/>
	<line class="st0" x1="431.4" y1="449.9" x2="461.1" y2="461.1"/>
	<line class="st0" x1="426.3" y1="427.3" x2="431.4" y2="449.9"/>
	<line class="st0" x1="422.6" y1="425.5" x2="426.3" y2="427.3"/>
	<line class="st0" x1="461.1" y1="421.1" x2="426.3" y2="427.3"/>
	<line class="st0" x1="474.4" y1="458.5" x2="474.3" y2="464.5"/>
	<line class="st0" x1="506.2" y1="457.7" x2="474.3" y2="464.5"/>
	<line class="st0" x1="506.2" y1="457.7" x2="499.5" y2="314.3"/>
	<line class="st0" x1="503.3" y1="473.6" x2="474.3" y2="464.5"/>
	<line class="st0" x1="535.4" y1="467.4" x2="506.2" y2="457.7"/>
	<line class="st0" x1="503.3" y1="473.6" x2="535.4" y2="467.4"/>
	<line class="st0" x1="527.9" y1="328.3" x2="535.4" y2="467.4"/>
	<line class="st0" x1="527.9" y1="328.3" x2="499.5" y2="314.3"/>
	<line class="st0" x1="467.1" y1="324.3" x2="499.5" y2="314.3"/>
	<line class="st0" x1="468" y1="337.5" x2="467.1" y2="324.3"/>
	<line class="st0" x1="518.5" y1="470.7" x2="518.7" y2="478.6"/>
	<line class="st0" x1="549.8" y1="473.3" x2="518.7" y2="478.6"/>
	<line class="st0" x1="573.5" y1="481.7" x2="542.5" y2="487"/>
	<line class="st0" x1="549.8" y1="473.3" x2="573.5" y2="481.7"/>
	<line class="st0" x1="543.4" y1="338.4" x2="549.8" y2="473.3"/>
	<line class="st0" x1="569.2" y1="408.8" x2="573.5" y2="481.7"/>
	<line class="st0" x1="528.7" y1="342.6" x2="543.4" y2="338.4"/>
	<line class="st0" x1="566.3" y1="349.9" x2="543.4" y2="338.4"/>
	<line class="st0" x1="594.7" y1="430.1" x2="566.3" y2="349.9"/>
	<line class="st0" x1="572.5" y1="367.4" x2="590.8" y2="362.7"/>
	<line class="st0" x1="594.7" y1="430.1" x2="590.8" y2="362.7"/>
	<line class="st0" x1="610.7" y1="374.5" x2="590.8" y2="362.7"/>
	<line class="st0" x1="597.8" y1="490.6" x2="569.2" y2="408.8"/>
	<line class="st0" x1="518.7" y1="478.6" x2="542.5" y2="487"/>
	<line class="st0" x1="564.3" y1="483.3" x2="567.9" y2="494.5"/>
	<line class="st0" x1="597.8" y1="490.6" x2="567.9" y2="494.5"/>
	<line class="st0" x1="617.7" y1="497.4" x2="587.8" y2="501.3"/>
	<line class="st0" x1="597.8" y1="490.6" x2="617.7" y2="497.4"/>
	<line class="st0" x1="567.9" y1="494.5" x2="587.8" y2="501.3"/>
	<line class="st0" x1="617.7" y1="497.4" x2="610.7" y2="374.5"/>
	<line class="st0" x1="597" y1="500.1" x2="596.1" y2="504.1"/>
	<line class="st0" x1="625.1" y1="500.4" x2="596.1" y2="504.1"/>
	<line class="st0" x1="638.4" y1="390.7" x2="625.1" y2="500.4"/>
	<line class="st0" x1="645.4" y1="492.6" x2="643.5" y2="507.3"/>
	<line class="st0" x1="663" y1="499.3" x2="645.4" y2="492.6"/>
	<line class="st0" x1="625.1" y1="500.4" x2="643.5" y2="507.3"/>
	<line class="st0" x1="666.1" y1="516.2" x2="663" y2="499.3"/>
	<line class="st0" x1="643.5" y1="507.3" x2="614.2" y2="511.5"/>
	<line class="st0" x1="596.1" y1="504.1" x2="614.2" y2="511.5"/>
	<line class="st0" x1="636.6" y1="508.3" x2="638.3" y2="519.1"/>
	<line class="st0" x1="666.1" y1="516.2" x2="638.3" y2="519.1"/>
	<line class="st0" x1="654.2" y1="526" x2="638.3" y2="519.1"/>
	<line class="st0" x1="682.7" y1="522.1" x2="654.2" y2="526"/>
	<line class="st0" x1="666.1" y1="516.2" x2="682.7" y2="522.1"/>
	<line class="st0" x1="649.8" y1="429.4" x2="649.1" y2="430.7"/>
	<line class="st0" x1="646.5" y1="469.1" x2="649.1" y2="430.7"/>
	<line class="st0" x1="658.2" y1="472.5" x2="649.8" y2="429.4"/>
	<line class="st0" x1="657.6" y1="474.1" x2="658.2" y2="472.5"/>
	<line class="st0" x1="646.5" y1="469.1" x2="658.1" y2="474.3"/>
	<line class="st0" x1="638.4" y1="390.7" x2="656.7" y2="401.1"/>
	<line class="st0" x1="682.7" y1="522.1" x2="656.7" y2="401.1"/>
	<line class="st0" x1="638.4" y1="390.7" x2="614.2" y2="395.9"/>
	<line class="st0" x1="612.7" y1="409.5" x2="614.2" y2="395.9"/>
	<line class="st0" x1="716.6" y1="560.3" x2="706.1" y2="416.8"/>
	<line class="st0" x1="251.4" y1="152.4" x2="469.9" y2="279.6"/>
	<line class="st0" x1="469.5" y1="276.5" x2="483.3" y2="319.3"/>
	<line class="st0" x1="500.1" y1="267.6" x2="469.5" y2="276.5"/>
	<line class="st0" x1="525.9" y1="283.3" x2="500.1" y2="267.6"/>
	<line class="st0" x1="513.7" y1="314.3" x2="525.9" y2="283.3"/>
	<line class="st0" x1="500.1" y1="267.6" x2="513.7" y2="314.3"/>
	<line class="st0" x1="504.8" y1="316.9" x2="513.7" y2="314.3"/>
	<line class="st0" x1="706.1" y1="416.8" x2="516.9" y2="306.2"/>
	<line class="st0" x1="222.6" y1="410.3" x2="716.6" y2="560.3"/>
	<line class="st0" x1="864.9" y1="556.8" x2="719.1" y2="492.1"/>
	<line class="st0" x1="711.7" y1="493.2" x2="719.1" y2="492.1"/>
	<line class="st0" x1="864.9" y1="600.6" x2="724.7" y2="558.4"/>
	<line class="st0" x1="717.2" y1="559.5" x2="724.7" y2="558.4"/>
	<line class="st0" x1="786.6" y1="607.2" x2="222.6" y2="478.4"/>
	<line class="st0" x1="637.5" y1="607.2" x2="633.4" y2="572.2"/>
	<line class="st0" x1="592.1" y1="607.2" x2="222.6" y2="551"/>
	<line class="st0" x1="235.7" y1="524.2" x2="236.3" y2="535.7"/>
	<line class="st0" x1="258.9" y1="539.8" x2="236.3" y2="535.7"/>
	<line class="st0" x1="258.9" y1="528.4" x2="235.7" y2="524.2"/>
	<line class="st0" x1="258.9" y1="539.8" x2="258.9" y2="528.4"/>
	<line class="st0" x1="235.1" y1="501.1" x2="235.7" y2="512.6"/>
	<line class="st0" x1="258.3" y1="516.7" x2="235.7" y2="512.6"/>
	<line class="st0" x1="258.3" y1="505.3" x2="235.1" y2="501.1"/>
	<line class="st0" x1="258.3" y1="516.7" x2="258.3" y2="505.3"/>
	<line class="st0" x1="263.7" y1="529.7" x2="264.3" y2="541.2"/>
	<line class="st0" x1="287" y1="545.3" x2="264.3" y2="541.2"/>
	<line class="st0" x1="287" y1="533.9" x2="263.7" y2="529.7"/>
	<line class="st0" x1="287" y1="545.3" x2="287" y2="533.9"/>
	<line class="st0" x1="263.7" y1="506.7" x2="264.3" y2="518.2"/>
	<line class="st0" x1="287" y1="522.3" x2="264.3" y2="518.2"/>
	<line class="st0" x1="287" y1="510.9" x2="263.7" y2="506.7"/>
	<line class="st0" x1="287" y1="522.3" x2="287" y2="510.9"/>
	<line class="st0" x1="291.3" y1="512" x2="292" y2="523.5"/>
	<line class="st0" x1="312.5" y1="527.6" x2="292" y2="523.5"/>
	<line class="st0" x1="312.5" y1="516.6" x2="291.3" y2="512"/>
	<line class="st0" x1="312.5" y1="527.6" x2="312.5" y2="516.2"/>
	<line class="st0" x1="292.5" y1="535" x2="293.1" y2="546.5"/>
	<line class="st0" x1="313.6" y1="550.6" x2="293.1" y2="546.5"/>
	<line class="st0" x1="313.6" y1="539.7" x2="292.5" y2="535"/>
	<line class="st0" x1="313.6" y1="550.6" x2="313.6" y2="539.2"/>
	<line class="st0" x1="317.6" y1="517.7" x2="318.2" y2="529.3"/>
	<line class="st0" x1="338.7" y1="533.4" x2="318.2" y2="529.3"/>
	<line class="st0" x1="338.7" y1="522.4" x2="317.6" y2="517.7"/>
	<line class="st0" x1="338.7" y1="533.4" x2="338.7" y2="521.9"/>
	<line class="st0" x1="318.4" y1="539.6" x2="319.1" y2="551.1"/>
	<line class="st0" x1="339.6" y1="555.2" x2="319.1" y2="551.1"/>
	<line class="st0" x1="339.6" y1="544.2" x2="318.4" y2="539.6"/>
	<line class="st0" x1="339.6" y1="555.2" x2="339.6" y2="543.8"/>
	<line class="st0" x1="342.2" y1="523.5" x2="342.5" y2="533.9"/>
	<line class="st0" x1="360.3" y1="527.6" x2="342.2" y2="523.5"/>
	<line class="st0" x1="360.8" y1="537.8" x2="342.5" y2="533.9"/>
	<line class="st0" x1="360.3" y1="527.6" x2="360.8" y2="537.8"/>
	<line class="st0" x1="343.7" y1="555.2" x2="343.5" y2="544.6"/>
	<line class="st0" x1="361.5" y1="547.6" x2="343.5" y2="544.6"/>
	<line class="st0" x1="362.1" y1="557.9" x2="343.3" y2="555.2"/>
	<line class="st0" x1="361.5" y1="547.6" x2="362.1" y2="557.9"/>
	<line class="st0" x1="365.5" y1="528.7" x2="366.3" y2="538.4"/>
	<line class="st0" x1="383.3" y1="541.4" x2="366.3" y2="538.4"/>
	<line class="st0" x1="382.3" y1="532.1" x2="383.4" y2="535.8"/>
	<line class="st0" x1="383.3" y1="541.4" x2="383.4" y2="535.8"/>
	<line class="st0" x1="365.5" y1="528.7" x2="382.3" y2="532.1"/>
	<line class="st0" x1="367" y1="559.1" x2="367.2" y2="552.7"/>
	<line class="st0" x1="366.3" y1="548.6" x2="367.2" y2="552.7"/>
	<line class="st0" x1="383.3" y1="551.9" x2="366.3" y2="548.6"/>
	<line class="st0" x1="385.6" y1="558.2" x2="383.3" y2="551.9"/>
	<line class="st0" x1="384.5" y1="562.2" x2="385.6" y2="558.2"/>
	<line class="st0" x1="367" y1="559.1" x2="384.5" y2="562.2"/>
	<line class="st0" x1="387.2" y1="533.6" x2="387.9" y2="535.5"/>
	<line class="st0" x1="388.4" y1="542.5" x2="387.9" y2="535.5"/>
	<line class="st0" x1="403.5" y1="536.2" x2="387.2" y2="533.6"/>
	<line class="st0" x1="403.8" y1="545.7" x2="405.1" y2="544.1"/>
	<line class="st0" x1="403.2" y1="536.2" x2="404.6" y2="538.6"/>
	<line class="st0" x1="405.1" y1="544.1" x2="404.6" y2="538.6"/>
	<line class="st0" x1="388.4" y1="542.5" x2="403.8" y2="545.7"/>
	<line class="st0" x1="389.1" y1="563" x2="389" y2="555.1"/>
	<line class="st0" x1="388.1" y1="552.7" x2="389" y2="555.1"/>
	<line class="st0" x1="404.8" y1="555.9" x2="388.1" y2="552.7"/>
	<line class="st0" x1="405.9" y1="559" x2="404.8" y2="555.9"/>
	<line class="st0" x1="405.8" y1="565.8" x2="405.9" y2="559"/>
	<line class="st0" x1="389.1" y1="563" x2="405.8" y2="565.8"/>
	<line class="st0" x1="409.2" y1="556.6" x2="410.5" y2="560.7"/>
	<line class="st0" x1="410.2" y1="566.6" x2="410.5" y2="560.7"/>
	<line class="st0" x1="425.1" y1="569" x2="410.2" y2="566.6"/>
	<line class="st0" x1="426.2" y1="565.9" x2="425.1" y2="569"/>
	<line class="st0" x1="424.6" y1="559.4" x2="426.2" y2="565.9"/>
	<line class="st0" x1="409.2" y1="556.6" x2="424.6" y2="559.4"/>
	<line class="st0" x1="407.8" y1="537.4" x2="408.7" y2="539.9"/>
	<line class="st0" x1="409.1" y1="546.7" x2="409.3" y2="543.5"/>
	<line class="st0" x1="408.7" y1="539.9" x2="409.3" y2="543.5"/>
	<line class="st0" x1="423.1" y1="540.5" x2="407.8" y2="537.4"/>
	<line class="st0" x1="424" y1="549.9" x2="425.1" y2="548.2"/>
	<line class="st0" x1="423.1" y1="540.5" x2="424.5" y2="542.8"/>
	<line class="st0" x1="425.1" y1="548.2" x2="424.5" y2="542.8"/>
	<line class="st0" x1="409.1" y1="546.7" x2="424" y2="549.9"/>
	<line class="st0" x1="429.9" y1="569.7" x2="429.9" y2="563.6"/>
	<line class="st0" x1="429" y1="560.4" x2="429.9" y2="563.6"/>
	<line class="st0" x1="444.3" y1="562.6" x2="429" y2="560.4"/>
	<line class="st0" x1="445.2" y1="567.8" x2="444.3" y2="562.6"/>
	<line class="st0" x1="444.7" y1="572.5" x2="445.2" y2="567.8"/>
	<line class="st0" x1="429.9" y1="569.7" x2="444.7" y2="572.5"/>
	<line class="st0" x1="428.8" y1="551" x2="429" y2="545.5"/>
	<line class="st0" x1="428.1" y1="542.1" x2="429" y2="545.5"/>
	<line class="st0" x1="442.4" y1="544.6" x2="428.1" y2="542.1"/>
	<line class="st0" x1="443.5" y1="549.6" x2="442.4" y2="544.6"/>
	<line class="st0" x1="442.9" y1="553.3" x2="443.5" y2="549.6"/>
	<line class="st0" x1="428.8" y1="551" x2="442.9" y2="553.3"/>
	<line class="st0" x1="449.2" y1="573.1" x2="449.1" y2="567.4"/>
	<line class="st0" x1="447.8" y1="563.6" x2="449.1" y2="567.4"/>
	<line class="st0" x1="462.1" y1="566.2" x2="447.8" y2="563.6"/>
	<line class="st0" x1="463.5" y1="571.1" x2="462.1" y2="566.2"/>
	<line class="st0" x1="462.8" y1="575.2" x2="463.5" y2="571.1"/>
	<line class="st0" x1="448.8" y1="573.1" x2="462.8" y2="575.2"/>
	<line class="st0" x1="447" y1="545.5" x2="447.5" y2="548.2"/>
	<line class="st0" x1="447.9" y1="554" x2="447.5" y2="548.2"/>
	<line class="st0" x1="461.8" y1="557.1" x2="447.9" y2="554"/>
	<line class="st0" x1="461.8" y1="553.3" x2="461.8" y2="557.1"/>
	<line class="st0" x1="460.6" y1="548.8" x2="461.8" y2="553.3"/>
	<line class="st0" x1="447" y1="545.5" x2="460.6" y2="548.8"/>
	<line class="st0" x1="464.6" y1="549.1" x2="465.4" y2="552.8"/>
	<line class="st0" x1="465.4" y1="557.5" x2="465.4" y2="552.8"/>
	<line class="st0" x1="478" y1="552.4" x2="464.6" y2="549.1"/>
	<line class="st0" x1="479.2" y1="556.4" x2="478" y2="552.4"/>
	<line class="st0" x1="479" y1="560.8" x2="479.1" y2="556.1"/>
	<line class="st0" x1="465.4" y1="557.5" x2="478.6" y2="560.6"/>
	<line class="st0" x1="466.7" y1="576.1" x2="467.2" y2="570.4"/>
	<line class="st0" x1="466.4" y1="566.8" x2="467.2" y2="570.4"/>
	<line class="st0" x1="479.3" y1="569.1" x2="466.4" y2="566.8"/>
	<line class="st0" x1="480.7" y1="573.2" x2="479.3" y2="569.1"/>
	<line class="st0" x1="480.7" y1="577.8" x2="480.7" y2="573.2"/>
	<line class="st0" x1="466.7" y1="576.1" x2="481.1" y2="577.8"/>
	<line class="st0" x1="481.8" y1="552.8" x2="482.7" y2="556.4"/>
	<line class="st0" x1="482.9" y1="562" x2="482.6" y2="555.9"/>
	<line class="st0" x1="495.8" y1="563.6" x2="482.9" y2="562"/>
	<line class="st0" x1="481.8" y1="552.8" x2="494.8" y2="555.2"/>
	<line class="st0" x1="495.7" y1="559.6" x2="494.8" y2="555.2"/>
	<line class="st0" x1="495.2" y1="563.5" x2="495.7" y2="559.6"/>
	<line class="st0" x1="484.3" y1="579.1" x2="484.4" y2="573.1"/>
	<line class="st0" x1="483.2" y1="569.7" x2="484.4" y2="573.1"/>
	<line class="st0" x1="496.4" y1="572.4" x2="483.2" y2="569.7"/>
	<line class="st0" x1="497.2" y1="577" x2="496.4" y2="572.4"/>
	<line class="st0" x1="496.8" y1="581.1" x2="497.2" y2="577"/>
	<line class="st0" x1="484.3" y1="579.1" x2="496.8" y2="581.1"/>
	<line class="st0" x1="498" y1="556" x2="499.1" y2="560.3"/>
	<line class="st0" x1="499.1" y1="564.4" x2="499.1" y2="560.3"/>
	<line class="st0" x1="510.3" y1="558.9" x2="498" y2="556"/>
	<line class="st0" x1="511.4" y1="562.8" x2="510.3" y2="558.9"/>
	<line class="st0" x1="510.9" y1="566.8" x2="511.4" y2="562.8"/>
	<line class="st0" x1="499.1" y1="564.4" x2="510.9" y2="566.8"/>
	<line class="st0" x1="499.6" y1="573.2" x2="511.4" y2="575.1"/>
	<line class="st0" x1="513.2" y1="579" x2="511.4" y2="575.1"/>
	<line class="st0" x1="512.8" y1="583.7" x2="513.2" y2="579"/>
	<line class="st0" x1="500.4" y1="581.9" x2="512.8" y2="583.7"/>
	<line class="st0" x1="500.9" y1="577.1" x2="500.4" y2="581.9"/>
	<line class="st0" x1="499.6" y1="573.2" x2="500.9" y2="577.1"/>
	<line class="st0" x1="516.3" y1="584.3" x2="516.1" y2="579"/>
	<line class="st0" x1="515.5" y1="576.4" x2="516.1" y2="579"/>
	<line class="st0" x1="527" y1="578.2" x2="515.5" y2="576.4"/>
	<line class="st0" x1="528" y1="581.1" x2="527" y2="578.2"/>
	<line class="st0" x1="528" y1="586.3" x2="528" y2="581.1"/>
	<line class="st0" x1="516.3" y1="584.3" x2="528" y2="586.3"/>
	<line class="st0" x1="514.7" y1="567.7" x2="514.4" y2="562.3"/>
	<line class="st0" x1="513.7" y1="559.4" x2="514.4" y2="562.3"/>
	<line class="st0" x1="524.8" y1="561.6" x2="513.7" y2="559.4"/>
	<line class="st0" x1="525.6" y1="563.6" x2="524.6" y2="561.2"/>
	<line class="st0" x1="525.8" y1="569.4" x2="525.6" y2="563.6"/>
	<line class="st0" x1="514.1" y1="567.5" x2="525.8" y2="569.4"/>
	<line class="st0" x1="531.1" y1="586.9" x2="530.9" y2="581.1"/>
	<line class="st0" x1="529.9" y1="578.5" x2="530.9" y2="581.1"/>
	<line class="st0" x1="541.3" y1="580.7" x2="529.9" y2="578.5"/>
	<line class="st0" x1="542.4" y1="584" x2="541.3" y2="580.7"/>
	<line class="st0" x1="541.9" y1="588.8" x2="542.4" y2="584"/>
	<line class="st0" x1="531.1" y1="586.9" x2="541.9" y2="588.8"/>
	<line class="st0" x1="528.6" y1="562.4" x2="529.6" y2="564.4"/>
	<line class="st0" x1="529.5" y1="570.2" x2="529.6" y2="564.4"/>
	<line class="st0" x1="539.4" y1="564.4" x2="528.6" y2="562.4"/>
	<line class="st0" x1="540.7" y1="567.3" x2="539.4" y2="564.4"/>
	<line class="st0" x1="540.7" y1="572.3" x2="540.7" y2="567.3"/>
	<line class="st0" x1="529.5" y1="570.2" x2="540.7" y2="572.3"/>
	<line class="st0" x1="542.5" y1="564.9" x2="543.7" y2="568.5"/>
	<line class="st0" x1="543.7" y1="573.4" x2="543.7" y2="568.5"/>
	<line class="st0" x1="554.4" y1="575.3" x2="543.7" y2="573.4"/>
	<line class="st0" x1="553.2" y1="567.3" x2="542.5" y2="564.9"/>
	<line class="st0" x1="554.7" y1="571.3" x2="553.2" y2="567.3"/>
	<line class="st0" x1="554.4" y1="575.3" x2="554.7" y2="571.3"/>
	<line class="st0" x1="545.1" y1="589.7" x2="550.6" y2="590.8"/>
	<line class="st0" x1="555" y1="591.5" x2="550.6" y2="590.8"/>
	<line class="st0" x1="556.4" y1="587.9" x2="555" y2="591.5"/>
	<line class="st0" x1="555" y1="582.9" x2="556.4" y2="587.9"/>
	<line class="st0" x1="544.5" y1="581.1" x2="555" y2="582.3"/>
	<line class="st0" x1="555.1" y1="583.3" x2="555" y2="582.3"/>
	<line class="st0" x1="545.1" y1="589.7" x2="545.2" y2="585.4"/>
	<line class="st0" x1="544.1" y1="581.1" x2="545.2" y2="585.8"/>
	<line class="st0" x1="558.1" y1="583.4" x2="563.5" y2="583.7"/>
	<line class="st0" x1="568.1" y1="585.3" x2="563.5" y2="583.7"/>
	<line class="st0" x1="569.8" y1="588.3" x2="568.4" y2="585.3"/>
	<line class="st0" x1="569.5" y1="593.4" x2="569.8" y2="588.3"/>
	<line class="st0" x1="568.4" y1="585.3" x2="567.4" y2="585"/>
	<line class="st0" x1="558.7" y1="592" x2="569.1" y2="593.4"/>
	<line class="st0" x1="558.1" y1="583.4" x2="558.7" y2="592"/>
	<line class="st0" x1="557.5" y1="575.9" x2="567.9" y2="577.8"/>
	<line class="st0" x1="567.9" y1="573.9" x2="567.9" y2="577.8"/>
	<line class="st0" x1="566.7" y1="570.5" x2="567.9" y2="573.9"/>
	<line class="st0" x1="556.9" y1="568" x2="566.7" y2="570.5"/>
	<line class="st0" x1="557" y1="571.7" x2="556.9" y2="568"/>
	<line class="st0" x1="557.5" y1="575.9" x2="557" y2="571.7"/>
	<line class="st0" x1="569.6" y1="571.3" x2="570.3" y2="578.4"/>
	<line class="st0" x1="580.5" y1="580.3" x2="570.3" y2="578.4"/>
	<line class="st0" x1="580.7" y1="576.8" x2="580.5" y2="580.3"/>
	<line class="st0" x1="579.3" y1="572.7" x2="580.7" y2="576.8"/>
	<line class="st0" x1="570" y1="571.3" x2="579.3" y2="572.7"/>
	<line class="st0" x1="581.5" y1="573" x2="582.7" y2="576.4"/>
	<line class="st0" x1="582.6" y1="580.5" x2="582.7" y2="576.4"/>
	<line class="st0" x1="592.8" y1="582.8" x2="582.6" y2="580.5"/>
	<line class="st0" x1="592.8" y1="578.5" x2="592.9" y2="582.3"/>
	<line class="st0" x1="591.4" y1="574.7" x2="592.8" y2="579.1"/>
	<line class="st0" x1="581.5" y1="573" x2="591.4" y2="574.7"/>
	<line class="st0" x1="594.9" y1="583.1" x2="604.6" y2="585.2"/>
	<line class="st0" x1="604.8" y1="581.7" x2="604.6" y2="585.2"/>
	<line class="st0" x1="603.2" y1="576.9" x2="604.8" y2="581.7"/>
	<line class="st0" x1="593.9" y1="574.8" x2="603.2" y2="576.9"/>
	<line class="st0" x1="594.9" y1="583.1" x2="593.9" y2="574.8"/>
	<line class="st0" x1="605.9" y1="577.3" x2="612.4" y2="578.5"/>
	<line class="st0" x1="613" y1="586.3" x2="612.4" y2="578.5"/>
	<line class="st0" x1="607.2" y1="585.4" x2="613" y2="586.3"/>
	<line class="st0" x1="605.9" y1="577.3" x2="607.2" y2="585.4"/>
	<line class="st0" x1="571.1" y1="585.8" x2="580.6" y2="587.1"/>
	<line class="st0" x1="582.7" y1="590.6" x2="580.6" y2="587.1"/>
	<line class="st0" x1="582.7" y1="595.3" x2="582.7" y2="590.6"/>
	<line class="st0" x1="571.9" y1="594.1" x2="582.7" y2="595.3"/>
	<line class="st0" x1="571.1" y1="585.8" x2="571.9" y2="594.1"/>
	<line class="st0" x1="584.1" y1="587.9" x2="593.6" y2="589.7"/>
	<line class="st0" x1="594.7" y1="597.7" x2="593.6" y2="589.7"/>
	<line class="st0" x1="584.3" y1="596.4" x2="594.7" y2="597.7"/>
	<line class="st0" x1="584.1" y1="587.9" x2="584.3" y2="596.4"/>
	<line class="st0" x1="595.5" y1="590" x2="596.3" y2="593.7"/>
	<line class="st0" x1="596.5" y1="598.2" x2="596.2" y2="593.1"/>
	<line class="st0" x1="606" y1="600.2" x2="596.5" y2="598.2"/>
	<line class="st0" x1="606.6" y1="595.7" x2="606" y2="600.2"/>
	<line class="st0" x1="604.7" y1="591.2" x2="606.6" y2="595.7"/>
	<line class="st0" x1="595.5" y1="590" x2="604.7" y2="591.2"/>
	<line class="st0" x1="607.6" y1="591.8" x2="614.3" y2="593"/>
	<line class="st0" x1="615.2" y1="601.2" x2="614.3" y2="593"/>
	<line class="st0" x1="608.6" y1="600.4" x2="615.2" y2="601.2"/>
	<line class="st0" x1="607.8" y1="596.2" x2="608.6" y2="600.4"/>
	<line class="st0" x1="607.1" y1="591.8" x2="607.6" y2="591.8"/>
	<line class="st0" x1="607.8" y1="596.2" x2="607.1" y2="591.8"/>
	<line class="st0" x1="384.9" y1="412.6" x2="406.6" y2="337.9"/>
	<line class="st0" x1="422.7" y1="270.1" x2="406.6" y2="337.9"/>
	<line class="st0" x1="349.2" y1="420.9" x2="381" y2="310.2"/>
	<line class="st0" x1="387.8" y1="281.1" x2="381" y2="310.2"/>
	<line class="st0" x1="422.7" y1="270.1" x2="455.8" y2="290"/>
	<line class="st0" x1="421.4" y1="426.4" x2="425.4" y2="407.1"/>
	<line class="st0" x1="384.9" y1="412.6" x2="418.3" y2="426.4"/>
	<line class="st0" x1="461.1" y1="421.1" x2="464.2" y2="442.1"/>
	<line class="st0" x1="496" y1="454.5" x2="470.5" y2="353.4"/>
	<line class="st0" x1="456.4" y1="289.1" x2="469.6" y2="350.7"/>
	<line class="st0" x1="426.2" y1="406.8" x2="457.9" y2="420.7"/>
	<line class="st0" x1="426.3" y1="427.3" x2="432.2" y2="447.9"/>
	<line class="st0" x1="436.2" y1="450.3" x2="461.1" y2="461.1"/>
	<line class="st0" x1="499.5" y1="315.6" x2="502.8" y2="362.8"/>
	<line class="st0" x1="500.2" y1="363.4" x2="504" y2="411.5"/>
	<line class="st0" x1="505.8" y1="411.5" x2="506.2" y2="457.7"/>
	<line class="st0" x1="474.3" y1="464.5" x2="506" y2="456.6"/>
	<line class="st0" x1="503.3" y1="473.6" x2="477.7" y2="464.8"/>
	<line class="st0" x1="535.4" y1="467.4" x2="506.8" y2="459.1"/>
	<line class="st0" x1="503.7" y1="472.9" x2="530.6" y2="467.6"/>
	<line class="st0" x1="549.8" y1="473.3" x2="544.9" y2="390"/>
	<line class="st0" x1="543.4" y1="338.4" x2="545.1" y2="388.6"/>
	<line class="st0" x1="573.5" y1="481.7" x2="549.9" y2="474.6"/>
	<line class="st0" x1="518.7" y1="478.6" x2="548.3" y2="472.7"/>
	<line class="st0" x1="542.5" y1="487" x2="523.4" y2="479.2"/>
	<line class="st0" x1="573.5" y1="481.7" x2="544.3" y2="485.3"/>
	<line class="st0" x1="569.2" y1="408.8" x2="572.6" y2="479.9"/>
	<line class="st0" x1="566.3" y1="349.9" x2="594.7" y2="431.1"/>
	<line class="st0" x1="589.6" y1="363" x2="594.7" y2="431.1"/>
	<line class="st0" x1="543.4" y1="338.4" x2="565.7" y2="350.7"/>
	<line class="st0" x1="610.7" y1="374.5" x2="590.8" y2="363.5"/>
	<line class="st0" x1="617" y1="497.1" x2="610.6" y2="399.5"/>
	<line class="st0" x1="610.7" y1="374.5" x2="610.6" y2="399.5"/>
	<line class="st0" x1="597.8" y1="490.6" x2="570.9" y2="410.1"/>
	<line class="st0" x1="656.7" y1="401.1" x2="638.3" y2="391.7"/>
	<line class="st0" x1="625.1" y1="500.4" x2="639.1" y2="392.1"/>
	<line class="st0" x1="681.9" y1="521.8" x2="665.4" y2="446.2"/>
	<line class="st0" x1="656.7" y1="401.1" x2="665.4" y2="446.2"/>
	<line class="st0" x1="646.5" y1="469.1" x2="649.9" y2="430.1"/>
	<line class="st0" x1="643.6" y1="506.4" x2="644.5" y2="492.6"/>
	<line class="st0" x1="638.3" y1="519.1" x2="665.9" y2="515.3"/>
	<line class="st0" x1="654.2" y1="526" x2="680.4" y2="521.3"/>
	<line class="st0" x1="638.3" y1="519.1" x2="637.5" y2="508.2"/>
	<line class="st0" x1="614.2" y1="511.5" x2="641.6" y2="506.6"/>
	<line class="st0" x1="625.1" y1="500.4" x2="640.3" y2="506.8"/>
	<line class="st0" x1="596.1" y1="504.1" x2="625.2" y2="499.3"/>
	<line class="st0" x1="614.2" y1="395.9" x2="637.7" y2="391.5"/>
	<line class="st0" x1="565.7" y1="350.7" x2="593.7" y2="430.8"/>
	<line class="st0" x1="716.6" y1="560.3" x2="708.1" y2="463.3"/>
	<line class="st0" x1="706.1" y1="416.8" x2="708.1" y2="463.3"/>
	<line class="st0" x1="644.1" y1="380.5" x2="706.1" y2="417.6"/>
	<line class="st0" x1="571.4" y1="338" x2="643.1" y2="381.3"/>
	<line class="st0" x1="513.7" y1="314.3" x2="501.2" y2="268.3"/>
	<line class="st0" x1="469.5" y1="276.5" x2="500.5" y2="269"/>
	<line class="st0" x1="516.9" y1="306.2" x2="574.4" y2="340.5"/>
	<line class="st0" x1="387.8" y1="281.1" x2="422.2" y2="272.1"/>
	<line class="st0" x1="349.2" y1="420.9" x2="386.7" y2="435.3"/>
	<line class="st0" x1="360.6" y1="572" x2="222.6" y2="600.8"/>
	<line class="st0" x1="339.5" y1="394.5" x2="222.6" y2="354.8"/>
	<line class="st0" x1="343.6" y1="351" x2="222.6" y2="298.8"/>
	<line class="st0" x1="360.6" y1="304" x2="222.6" y2="237.6"/>
	<line class="st0" x1="368.5" y1="258.8" x2="222.6" y2="183.3"/>
	<line class="st0" x1="408.3" y1="402.7" x2="414.6" y2="381.3"/>
	<line class="st0" x1="473.9" y1="419.5" x2="469.6" y2="404"/>
	<line class="st0" x1="409" y1="365.6" x2="417.7" y2="350.7"/>
	<line class="st0" x1="423.4" y1="334.7" x2="428.5" y2="321.3"/>
	<line class="st0" x1="509.2" y1="344.5" x2="510.9" y2="354.8"/>
	<line class="st0" x1="518.6" y1="371.8" x2="520.8" y2="381.3"/>
	<line class="st0" x1="517.2" y1="402.7" x2="520.8" y2="416.7"/>
	<line class="st0" x1="519.9" y1="430.1" x2="519.3" y2="437.6"/>
	<line class="st0" x1="555.7" y1="374.6" x2="557.3" y2="381.3"/>
	<line class="st0" x1="557.3" y1="409.7" x2="557.3" y2="416.7"/>
	<line class="st0" x1="556.5" y1="440" x2="563.9" y2="455.7"/>
	<line class="st0" x1="592.1" y1="445.3" x2="595.9" y2="455.5"/>
	<line class="st0" x1="602.7" y1="409.7" x2="604.7" y2="419.5"/>
	<line class="st0" x1="610.1" y1="469" x2="610.6" y2="455.5"/>
	<line class="st0" x1="632.7" y1="482.8" x2="634.3" y2="471.7"/>
	<line class="st0" x1="652.3" y1="482.8" x2="661" y2="482.8"/>
	<line class="st0" x1="668.5" y1="494" x2="674.4" y2="499.9"/>
	<line class="st0" x1="649.5" y1="409.7" x2="654.2" y2="416.7"/>
	<line class="st0" x1="637.9" y1="433.8" x2="644.1" y2="419.7"/>
	<line class="st0" x1="467.5" y1="368.6" x2="462.6" y2="354.8"/>
	<line class="st0" x1="447.2" y1="309.3" x2="453.7" y2="319.3"/>
	<line class="st0" x1="429.9" y1="309.3" x2="435.9" y2="298.8"/>
	<line class="st0" x1="375.8" y1="399.1" x2="375.8" y2="378"/>
	<line class="st0" x1="384.5" y1="361.5" x2="389.1" y2="349.7"/>
	<line class="st0" x1="386.8" y1="323.3" x2="395.4" y2="308.7"/>
	<line class="st0" x1="558.9" y1="355.6" x2="563.9" y2="365.6"/>
	<line class="st0" x1="577.3" y1="405.8" x2="574.6" y2="396.4"/>
	<line class="st0" x1="601.3" y1="375.3" x2="601.3" y2="385.3"/>
	<line class="st0" x1="637.9" y1="457.7" x2="637.9" y2="448.8"/>
	<line class="st0" x1="602.7" y1="482.8" x2="611.9" y2="485.3"/>
	<line class="st0" x1="635.4" y1="495.9" x2="637.9" y2="488.9"/>
	<line class="st0" x1="664.5" y1="463.3" x2="661" y2="444.4"/>
	<line class="st0" x1="484.8" y1="440" x2="482.2" y2="433.8"/>
	<line class="st0" x1="527.5" y1="455.7" x2="528" y2="446.4"/>
	<line class="st0" x1="560.2" y1="469.2" x2="558.9" y2="461.5"/>
</g>
</svg>
