<?xml version="1.0" encoding="utf-8"?>
<!-- Generator: Adobe Illustrator 22.1.0, SVG Export Plug-In . SVG Version: 6.00 Build 0)  -->
<svg version="1.1" id="Слой_1" xmlns="http://www.w3.org/2000/svg" xmlns:xlink="http://www.w3.org/1999/xlink" x="0px" y="0px"
	 viewBox="0 0 1096 776" style="enable-background:new 0 0 1096 776;" xml:space="preserve">
<style type="text/css">
	.st0{fill:#231F20;}
	.st1{fill:none;stroke:#231F20;stroke-width:3;stroke-miterlimit:10;}
	.st2{stroke:#231F20;stroke-width:3;stroke-miterlimit:10;}
</style>
<g>
	<path class="st0" d="M-1101.6-52.5c0.3,0,0.3-0.5,0-0.5S-1102-52.5-1101.6-52.5L-1101.6-52.5z"/>
</g>
<g>
	<path class="st0" d="M-1101.6-52.4c0.4,0,0.4-0.6,0-0.6S-1102-52.4-1101.6-52.4L-1101.6-52.4z"/>
</g>
<g>
	<path class="st0" d="M-1101.6-50.9c0.4,0,0.4-0.6,0-0.6C-1102.1-51.6-1102.1-50.9-1101.6-50.9L-1101.6-50.9z"/>
</g>
<g>
	<path class="st0" d="M-1101.6-50.9c0.5,0,0.5-0.8,0-0.8S-1102.1-50.9-1101.6-50.9L-1101.6-50.9z"/>
</g>
<g>
	<path class="st0" d="M-1101.6-52.3c0.5,0,0.5-0.8,0-0.8S-1102.2-52.3-1101.6-52.3L-1101.6-52.3z"/>
</g>
<g>
	<path class="st0" d="M-1114.7-46.7c0.3,0,0.3-0.5,0-0.5S-1115-46.7-1114.7-46.7L-1114.7-46.7z"/>
</g>
<g>
	<path class="st0" d="M-1114.7-46.7c0.3,0,0.3-0.5,0-0.5S-1115-46.7-1114.7-46.7L-1114.7-46.7z"/>
</g>
<g>
	<path class="st0" d="M-1113.2-47.4c1.3,0,1.3-2,0-2S-1114.5-47.4-1113.2-47.4L-1113.2-47.4z"/>
</g>
<g>
	<path class="st0" d="M-1114.7-48.1c0.4,0,0.4-0.6,0-0.6S-1115-48.1-1114.7-48.1L-1114.7-48.1z"/>
</g>
<g>
	<path class="st0" d="M-1115.1-46.9c0,1,0.1,1.5,0.7,2.3c0.9,1.2-0.3,3.4-0.6,4.6c-1.2,5.2-0.4,10.9-0.2,16.2
		c0.3,12.5-0.4,25,0.1,37.5c0.4,10.9-0.2,21.5-0.3,32.3c0,5.7-0.5,11.6,0,17.2c0.1,0.9,1.4,1,1.4,0v-0.1c0-0.9-1.4-0.9-1.4,0v0.1
		c0,1,1.4,0.9,1.4,0c0.5-4.6,0-9.4,0-14c0-8.8,0.7-17.6,0.5-26.5c-0.3-11-0.6-21.9-0.6-32.9c0-5.1,0.1-10.2-0.1-15.3
		c-0.2-6.1-1.1-12.5,1.4-18.3c0.1-0.2,0.1-0.4-0.1-0.5c-0.4-0.9-0.9-1.7-1.3-2.6C-1114.3-47.5-1115.1-47.5-1115.1-46.9L-1115.1-46.9
		z"/>
</g>
<g>
	<path class="st0" d="M-1114.7,66.3c0.4,0,0.4-0.5,0-0.5C-1115,65.7-1115,66.3-1114.7,66.3L-1114.7,66.3z"/>
</g>
<g>
	<path class="st0" d="M-1115.1,67.6c0.9,2.5-0.4,6.4-0.7,8.8c-0.5,3.8-1.1,7.7-1.1,11.5c-0.1,5.8,2.8,7.1,7.1,3.2
		c0.4-0.4,0.1-1-0.4-1.1c-4.1-0.3-7.6-1.6-11.4-3c-0.9-0.3-1.2,1-0.4,1.4c5.9,2.4,11.4,0.3,17.6,0.1c1,0,1-1.5,0-1.5
		c-4.7-0.1-9.7-1.4-13.6,1.6c-0.6,0.5-0.1,1.4,0.6,1.4c4.6,0,8.9-0.2,13.2-1.5c0.4-0.1,0.7-0.6,0.6-1c-1.6-5.8-9.9-17.5-3.3-22.2
		c-0.4-0.3-0.8-0.6-1.2-0.9c-1.4,8.5-2.2,15.7,1.5,23.8c0.1,0.2,0.4,0.4,0.7,0.4c0.7,0,0.9,0,1.5-0.3c0.3-0.2,0.6-0.8,0.3-1.1
		c-0.5-0.7-0.7-0.8-1.5-1.3c-0.5-0.3-1.1,0.3-0.8,0.8c2.1,3.1-0.4-3.1-0.7-4c-0.6-1.8-0.8-3.8-0.9-5.7c-0.2-4,0.7-8.1,1.4-12.1
		c0.1-0.6-0.6-1.4-1.2-0.9c-4.1,2.9-3.5,7.6-2.2,12c0.9,3,2.3,5.8,3.5,8.7c0.6,1.4,1.7,2.5-0.1,3c-3.5,1-7.3,0.9-11,0.9
		c0.2,0.5,0.4,0.9,0.6,1.4c3.4-2.7,8.6-1.3,12.5-1.3c0-0.5,0-1,0-1.5c-5.9,0.3-11.4,2.4-17.2,0.1c-0.1,0.5-0.3,0.9-0.4,1.4
		c3.9,1.4,7.6,2.7,11.8,2.8c-0.1-0.4-0.3-0.7-0.4-1.1c-2.5,2.5-4.8,3.2-5.1-1c-0.2-2.8,0.1-5.7,0.5-8.5c0.4-3.7,2.5-9.8,1.2-13.4
		C-1114.5,66.8-1115.2,67-1115.1,67.6L-1115.1,67.6z"/>
</g>
<g>
	<path class="st0" d="M-1111.8,69.1c0.3,0,0.3-0.5,0-0.5S-1112.1,69.1-1111.8,69.1L-1111.8,69.1z"/>
</g>
<g>
	<path class="st0" d="M-1111.8,69.9c1.3,0,1.3-2,0-2S-1113.1,69.9-1111.8,69.9L-1111.8,69.9z"/>
</g>
<g>
	<path class="st0" d="M-1113.2,71.3c1.3,0,1.3-2,0-2S-1114.5,71.3-1113.2,71.3L-1113.2,71.3z"/>
</g>
<g>
	<path class="st0" d="M-1113.2,72.1c0.4,0,0.4-0.6,0-0.6S-1113.6,72.1-1113.2,72.1L-1113.2,72.1z"/>
</g>
<g>
	<path class="st0" d="M-1111.8,73.7c0.6,0,0.6-0.9,0-0.9S-1112.3,73.7-1111.8,73.7L-1111.8,73.7z"/>
</g>
<g>
	<path class="st0" d="M-1111.4,73c-1.2-2.8-1.7-5.9-2.9-8.7c-0.2-0.5-1-0.1-0.8,0.4c1.5,5.7,4.1,11.3,4.4,17.2c0,0.5,0.8,0.5,0.8,0
		c-0.1-6.1-2.7-11.7-4.3-17.5c-0.3,0.1-0.6,0.2-0.8,0.4c1.2,2.8,1.7,5.9,2.9,8.7C-1111.9,74-1111.2,73.5-1111.4,73L-1111.4,73z"/>
</g>
<g>
	<path class="st0" d="M-1104.5-7.5c0.4,0,0.4-0.6,0-0.6S-1104.9-7.5-1104.5-7.5L-1104.5-7.5z"/>
</g>
<line class="st1" x1="284.6" y1="169.9" x2="284.6" y2="569.5"/>
<line class="st1" x1="833.5" y1="169.9" x2="284.6" y2="169.9"/>
<line class="st1" x1="833.5" y1="569.5" x2="833.5" y2="169.9"/>
<line class="st1" x1="284.6" y1="569.5" x2="833.5" y2="569.5"/>
<line class="st1" x1="284.6" y1="569.5" x2="232.1" y2="622"/>
<line class="st1" x1="833.5" y1="569.5" x2="890" y2="626"/>
<line class="st1" x1="368.9" y1="169.9" x2="368.9" y2="569.5"/>
<line class="st1" x1="743.5" y1="169.9" x2="743.5" y2="569.5"/>
<line class="st1" x1="368.9" y1="472.9" x2="743.5" y2="472.9"/>
<line class="st1" x1="368.9" y1="257.8" x2="743.5" y2="257.8"/>
<line class="st1" x1="559" y1="169.9" x2="559" y2="257.8"/>
<line class="st1" x1="284.6" y1="213.8" x2="833.5" y2="213.8"/>
<line class="st1" x1="559" y1="472.9" x2="559" y2="569.5"/>
<line class="st1" x1="284.6" y1="505.1" x2="833.5" y2="505.1"/>
<line class="st1" x1="284.6" y1="537.3" x2="833.5" y2="537.3"/>
<line class="st1" x1="284.6" y1="257.8" x2="368.9" y2="257.8"/>
<line class="st1" x1="743.5" y1="257.8" x2="833.5" y2="257.8"/>
<line class="st1" x1="368.9" y1="472.9" x2="284.6" y2="472.9"/>
<line class="st1" x1="743.5" y1="472.9" x2="833.5" y2="472.9"/>
<line class="st1" x1="361.7" y1="382.2" x2="361.7" y2="408"/>
<line class="st1" x1="750.8" y1="382.2" x2="750.8" y2="408"/>
<line class="st1" x1="313.3" y1="482.5" x2="339.1" y2="482.5"/>
<line class="st1" x1="313.3" y1="513.9" x2="339.1" y2="513.9"/>
<line class="st1" x1="313.9" y1="545.4" x2="339.6" y2="545.4"/>
<line class="st1" x1="450.8" y1="482.5" x2="476.6" y2="482.5"/>
<line class="st1" x1="450.8" y1="248.9" x2="476.6" y2="248.9"/>
<line class="st1" x1="313.9" y1="248.9" x2="339.6" y2="248.9"/>
<line class="st1" x1="450.8" y1="513.9" x2="476.6" y2="513.9"/>
<line class="st1" x1="451.3" y1="545.4" x2="477.1" y2="545.4"/>
<line class="st1" x1="638.1" y1="482.5" x2="663.9" y2="482.5"/>
<line class="st1" x1="638.1" y1="248.9" x2="663.9" y2="248.9"/>
<line class="st1" x1="775.6" y1="248.9" x2="801.4" y2="248.9"/>
<line class="st1" x1="638.1" y1="513.9" x2="663.9" y2="513.9"/>
<line class="st1" x1="638.6" y1="545.4" x2="664.4" y2="545.4"/>
<line class="st1" x1="775.4" y1="482.5" x2="801.1" y2="482.5"/>
<line class="st1" x1="775.4" y1="513.9" x2="801.1" y2="513.9"/>
<line class="st1" x1="775.9" y1="545.4" x2="801.7" y2="545.4"/>
<rect x="408" y="290.1" class="st2" width="295.3" height="145.3"/>
</svg>
