<?xml version="1.0" encoding="utf-8"?>
<!-- Generator: Adobe Illustrator 22.1.0, SVG Export Plug-In . SVG Version: 6.00 Build 0)  -->
<svg version="1.1" id="Слой_1" xmlns="http://www.w3.org/2000/svg" xmlns:xlink="http://www.w3.org/1999/xlink" x="0px" y="0px"
	 viewBox="0 0 1096 776" style="enable-background:new 0 0 1096 776;" xml:space="preserve">
<style type="text/css">
	.st0{fill:none;stroke:#231F20;stroke-width:3;stroke-miterlimit:10;}
</style>
<line class="st0" x1="252.9" y1="694.9" x2="252.9" y2="245.9"/>
<line class="st0" x1="252.9" y1="245.9" x2="374.9" y2="123.9"/>
<line class="st0" x1="252.9" y1="694.9" x2="374.9" y2="572.9"/>
<line class="st0" x1="374.9" y1="123.9" x2="374.9" y2="572.9"/>
<line class="st0" x1="285.4" y1="662.4" x2="285.4" y2="348.4"/>
<line class="st0" x1="349" y1="598.7" x2="349" y2="284.7"/>
<line class="st0" x1="252.9" y1="380.9" x2="374.9" y2="258.9"/>
<line class="st0" x1="285.4" y1="348.4" x2="285.4" y2="213.4"/>
<line class="st0" x1="349" y1="284.7" x2="349" y2="149.7"/>
<line class="st0" x1="252.9" y1="311.2" x2="374.9" y2="189.2"/>
<line class="st0" x1="349" y1="525" x2="374.9" y2="499.2"/>
<line class="st0" x1="252.9" y1="621.2" x2="285.4" y2="588.7"/>
<line class="st0" x1="349" y1="444.4" x2="374.9" y2="418.5"/>
<line class="st0" x1="252.9" y1="540.5" x2="285.4" y2="508"/>
<line class="st0" x1="349" y1="358.4" x2="375.5" y2="331.9"/>
<line class="st0" x1="252.9" y1="454.5" x2="285.4" y2="422"/>
<line class="st0" x1="319" y1="179.7" x2="319" y2="315.8"/>
<line class="st0" x1="374.9" y1="572.9" x2="808.9" y2="572.9"/>
<line class="st0" x1="374.9" y1="123.9" x2="808.9" y2="123.9"/>
<line class="st0" x1="808.9" y1="572.9" x2="808.9" y2="123.9"/>
<line class="st0" x1="374.9" y1="499.2" x2="808.9" y2="499.2"/>
<line class="st0" x1="374.9" y1="418.5" x2="808.9" y2="418.5"/>
<line class="st0" x1="375.5" y1="331.9" x2="808.9" y2="331.9"/>
<line class="st0" x1="374.9" y1="258.9" x2="808.9" y2="258.9"/>
<line class="st0" x1="374.9" y1="189.2" x2="808.9" y2="189.2"/>
<line class="st0" x1="452.9" y1="123.9" x2="452.9" y2="572.9"/>
<line class="st0" x1="538.9" y1="123.9" x2="538.9" y2="572.9"/>
<line class="st0" x1="626.9" y1="123.9" x2="626.9" y2="572.9"/>
<line class="st0" x1="716.9" y1="123.9" x2="716.9" y2="572.9"/>
</svg>
