<?xml version="1.0" encoding="utf-8"?>
<!-- Generator: Adobe Illustrator 17.0.0, SVG Export Plug-In . SVG Version: 6.00 Build 0)  -->
<!DOCTYPE svg PUBLIC "-//W3C//DTD SVG 1.1//EN" "http://www.w3.org/Graphics/SVG/1.1/DTD/svg11.dtd">
<svg version="1.1" id="Слой_1" xmlns="http://www.w3.org/2000/svg" xmlns:xlink="http://www.w3.org/1999/xlink" x="0px" y="0px"
	 width="179.977px" height="35.995px" viewBox="0 0 179.977 35.995" enable-background="new 0 0 179.977 35.995"
	 xml:space="preserve">
<g>
	<path fill="#FFFFFF" d="M17.972,0.031C8.046,0.031,0,8.077,0,18.003c0,9.926,8.046,17.972,17.972,17.972
		s17.972-8.046,17.972-17.972C35.943,8.077,27.898,0.031,17.972,0.031L17.972,0.031z M17.972,35.01
		c-9.393,0-17.008-7.615-17.008-17.008c0-9.393,7.614-17.008,17.008-17.008c9.393,0,17.008,7.614,17.008,17.008
		C34.98,27.396,27.365,35.01,17.972,35.01L17.972,35.01z M17.972,33.166"/>
	<path fill-rule="evenodd" clip-rule="evenodd" fill="#FFFFFF" d="M22.236,15.251H19.11V12.97c0-0.7,0.724-0.862,1.062-0.862h2.019
		V9.029l-2.314-0.012c-3.158,0-3.879,2.296-3.879,3.768v2.467h-2.291v3.172h2.291v8.564h3.112v-8.564h2.644L22.236,15.251z
		 M22.236,15.251"/>
</g>
<g>
	<path fill="#FFFFFF" d="M53.915,0.031c-9.926,0-17.972,8.046-17.972,17.972c0,9.926,8.046,17.972,17.972,17.972
		s17.972-8.046,17.972-17.972C71.887,8.076,63.841,0.031,53.915,0.031L53.915,0.031z M53.915,35.01
		c-9.393,0-17.008-7.615-17.008-17.008c0-9.393,7.614-17.008,17.008-17.008c9.393,0,17.008,7.614,17.008,17.008
		C70.923,27.396,63.308,35.01,53.915,35.01L53.915,35.01z M53.915,33.166"/>
</g>
<g>
	<path fill="#FFFFFF" d="M89.858,0.031c-9.926,0-17.972,8.046-17.972,17.972c0,9.926,8.046,17.972,17.972,17.972
		s17.972-8.046,17.972-17.972C107.83,8.077,99.784,0.031,89.858,0.031L89.858,0.031z M89.858,35.01
		c-9.393,0-17.008-7.615-17.008-17.008c0-9.393,7.614-17.008,17.008-17.008c9.393,0,17.008,7.614,17.008,17.008
		C106.866,27.396,99.252,35.01,89.858,35.01L89.858,35.01z M89.858,33.166"/>
</g>
<g>
	<path fill="#FFFFFF" d="M125.802,0.023c-9.926,0-17.972,8.046-17.972,17.972c0,9.926,8.046,17.972,17.972,17.972
		s17.972-8.046,17.972-17.972C143.773,8.068,135.727,0.023,125.802,0.023L125.802,0.023z M125.802,35.002
		c-9.393,0-17.008-7.615-17.008-17.008c0-9.393,7.614-17.008,17.008-17.008c9.393,0,17.008,7.614,17.008,17.008
		C142.809,27.388,135.195,35.002,125.802,35.002L125.802,35.002z M125.802,33.158"/>
</g>
<g>
	<path fill="#FFFFFF" d="M161.745,0.021c-9.926,0-17.972,8.046-17.972,17.972c0,9.926,8.046,17.972,17.972,17.972
		s17.972-8.046,17.972-17.972C179.717,8.067,171.671,0.021,161.745,0.021L161.745,0.021z M161.745,35.001
		c-9.393,0-17.008-7.615-17.008-17.008c0-9.393,7.614-17.008,17.008-17.008c9.393,0,17.008,7.614,17.008,17.008
		C178.753,27.386,171.138,35.001,161.745,35.001L161.745,35.001z M161.745,33.157"/>
</g>
<g>
	<path fill="#FFFFFF" stroke="#FFFFFF" stroke-width="0.5" stroke-miterlimit="10" d="M57.629,9.039h-8.025
		c-2.725,0-4.942,2.217-4.942,4.943v8.025c0,2.725,2.217,4.942,4.942,4.942h8.025c2.725,0,4.942-2.217,4.942-4.942v-8.025
		C62.571,11.256,60.354,9.039,57.629,9.039L57.629,9.039z M60.982,22.007c0,1.849-1.504,3.353-3.353,3.353h-8.025
		c-1.849,0-3.353-1.504-3.353-3.353v-8.025c0-1.849,1.504-3.354,3.353-3.354h8.025c1.849,0,3.353,1.504,3.353,3.354V22.007z
		 M60.982,22.007"/>
	<path fill="#FFFFFF" stroke="#FFFFFF" stroke-width="0.5" stroke-miterlimit="10" d="M53.616,13.38
		c-2.545,0-4.615,2.07-4.615,4.614c0,2.545,2.07,4.615,4.615,4.615c2.544,0,4.615-2.07,4.615-4.615
		C58.231,15.45,56.161,13.38,53.616,13.38L53.616,13.38z M53.616,21.02c-1.668,0-3.026-1.357-3.026-3.026
		c0-1.668,1.357-3.026,3.026-3.026s3.026,1.358,3.026,3.026C56.642,19.663,55.285,21.02,53.616,21.02L53.616,21.02z M53.616,21.02"
		/>
	<path fill="#FFFFFF" stroke="#FFFFFF" stroke-width="0.5" stroke-miterlimit="10" d="M58.425,12.032
		c-0.306,0-0.607,0.124-0.823,0.341c-0.218,0.216-0.342,0.517-0.342,0.825c0,0.306,0.125,0.607,0.342,0.824
		c0.216,0.216,0.517,0.341,0.823,0.341c0.307,0,0.607-0.125,0.824-0.341c0.217-0.217,0.341-0.518,0.341-0.824
		c0-0.307-0.124-0.608-0.341-0.825C59.033,12.156,58.732,12.032,58.425,12.032L58.425,12.032z M58.425,12.032"/>
</g>
<g>
	<g>
		<path fill="#FFFFFF" d="M99.069,22.917c-0.023-0.051-0.045-0.092-0.065-0.126c-0.334-0.602-0.974-1.341-1.917-2.218l-0.02-0.02
			l-0.01-0.01l-0.01-0.01h-0.01c-0.428-0.408-0.7-0.683-0.813-0.823c-0.208-0.268-0.254-0.539-0.141-0.813
			c0.081-0.208,0.381-0.645,0.903-1.315c0.274-0.354,0.492-0.639,0.652-0.853c1.158-1.539,1.66-2.523,1.506-2.951l-0.06-0.1
			c-0.04-0.06-0.144-0.115-0.311-0.165c-0.167-0.051-0.381-0.059-0.642-0.025l-2.891,0.02c-0.046-0.016-0.114-0.015-0.2,0.005
			c-0.087,0.02-0.131,0.03-0.131,0.03l-0.05,0.025l-0.04,0.03c-0.034,0.02-0.07,0.055-0.111,0.105c-0.04,0.05-0.073,0.109-0.1,0.176
			c-0.315,0.81-0.672,1.562-1.074,2.258c-0.248,0.415-0.475,0.775-0.683,1.079c-0.208,0.304-0.381,0.529-0.522,0.672
			c-0.141,0.144-0.268,0.259-0.381,0.346c-0.114,0.087-0.201,0.124-0.261,0.111c-0.06-0.014-0.117-0.027-0.171-0.04
			c-0.094-0.06-0.169-0.142-0.226-0.246c-0.057-0.103-0.096-0.234-0.115-0.392c-0.02-0.157-0.032-0.292-0.036-0.406
			c-0.003-0.114-0.001-0.275,0.005-0.482c0.007-0.208,0.01-0.348,0.01-0.422c0-0.255,0.005-0.531,0.014-0.828
			c0.01-0.298,0.019-0.534,0.025-0.707c0.007-0.174,0.01-0.358,0.01-0.552c0-0.194-0.012-0.346-0.035-0.457
			c-0.023-0.11-0.058-0.217-0.105-0.321c-0.047-0.103-0.115-0.184-0.206-0.241c-0.09-0.057-0.202-0.102-0.336-0.136
			c-0.355-0.08-0.807-0.123-1.355-0.131c-1.244-0.013-2.044,0.067-2.399,0.241c-0.141,0.073-0.268,0.174-0.381,0.301
			c-0.12,0.147-0.137,0.228-0.051,0.241c0.402,0.06,0.686,0.204,0.854,0.431l0.06,0.121c0.047,0.087,0.094,0.241,0.14,0.461
			c0.047,0.221,0.077,0.465,0.09,0.733c0.034,0.488,0.034,0.907,0,1.255c-0.033,0.348-0.065,0.619-0.095,0.813
			c-0.03,0.194-0.075,0.351-0.135,0.472c-0.06,0.12-0.1,0.194-0.121,0.221c-0.02,0.026-0.037,0.043-0.05,0.05
			c-0.087,0.034-0.177,0.051-0.271,0.051c-0.093,0-0.207-0.047-0.341-0.141c-0.134-0.094-0.272-0.223-0.416-0.387
			c-0.144-0.164-0.306-0.393-0.487-0.687c-0.18-0.294-0.367-0.642-0.562-1.044l-0.161-0.291c-0.101-0.187-0.238-0.46-0.411-0.818
			c-0.174-0.358-0.328-0.704-0.461-1.039c-0.054-0.14-0.134-0.247-0.241-0.321l-0.05-0.03c-0.034-0.026-0.087-0.055-0.161-0.085
			c-0.074-0.03-0.15-0.052-0.231-0.065l-2.75,0.02c-0.281,0-0.472,0.064-0.572,0.191l-0.04,0.06c-0.02,0.034-0.03,0.087-0.03,0.161
			c0,0.074,0.02,0.164,0.06,0.271c0.402,0.943,0.838,1.853,1.31,2.73c0.472,0.877,0.881,1.583,1.229,2.118
			c0.348,0.535,0.702,1.041,1.064,1.515c0.362,0.475,0.601,0.78,0.718,0.914c0.117,0.134,0.209,0.234,0.276,0.301l0.251,0.241
			c0.161,0.161,0.396,0.353,0.708,0.577c0.311,0.224,0.656,0.445,1.033,0.663c0.378,0.217,0.818,0.395,1.32,0.532
			c0.502,0.137,0.99,0.192,1.465,0.165h1.154c0.234-0.02,0.411-0.094,0.532-0.221l0.04-0.05c0.027-0.04,0.052-0.102,0.075-0.186
			c0.023-0.083,0.035-0.176,0.035-0.276c-0.007-0.288,0.015-0.547,0.065-0.778c0.05-0.23,0.107-0.404,0.171-0.522
			c0.064-0.117,0.135-0.216,0.216-0.296c0.08-0.081,0.137-0.129,0.171-0.146c0.033-0.017,0.06-0.028,0.08-0.036
			c0.161-0.053,0.349-0.001,0.567,0.156c0.217,0.158,0.421,0.351,0.612,0.582c0.191,0.231,0.42,0.49,0.687,0.778
			c0.268,0.287,0.502,0.502,0.702,0.642l0.201,0.12c0.134,0.081,0.308,0.154,0.522,0.221c0.214,0.067,0.401,0.084,0.562,0.051
			l2.57-0.04c0.254,0,0.452-0.042,0.592-0.126c0.141-0.084,0.224-0.176,0.251-0.275c0.027-0.101,0.028-0.214,0.005-0.342
			C99.115,23.056,99.092,22.967,99.069,22.917L99.069,22.917z M99.069,22.917"/>
	</g>
</g>
<g>
	<path fill="#FFFFFF" d="M132.882,18.291c-0.085-0.39-0.275-0.716-0.569-0.98c-0.294-0.264-0.633-0.419-1.015-0.465
		c-1.215-0.132-3.046-0.198-5.496-0.198c-2.449,0-4.278,0.066-5.486,0.198c-0.389,0.046-0.729,0.201-1.02,0.465
		c-0.291,0.264-0.482,0.591-0.575,0.98c-0.172,0.766-0.258,1.921-0.258,3.466c0,1.571,0.086,2.726,0.258,3.466
		c0.086,0.389,0.275,0.716,0.569,0.981c0.294,0.264,0.633,0.416,1.015,0.455c1.215,0.139,3.047,0.208,5.496,0.208
		c2.449,0,4.281-0.069,5.496-0.208c0.383-0.039,0.719-0.191,1.01-0.455c0.291-0.264,0.482-0.591,0.574-0.981
		c0.172-0.766,0.258-1.921,0.258-3.466C133.14,20.186,133.053,19.031,132.882,18.291L132.882,18.291z M122.653,19.291h-1.06v5.634
		h-0.99v-5.634h-1.04v-0.931h3.09V19.291z M125.326,24.926h-0.881v-0.535c-0.357,0.403-0.694,0.604-1.01,0.604
		c-0.304,0-0.496-0.122-0.575-0.366c-0.053-0.158-0.079-0.399-0.079-0.723v-3.872h0.881v3.604c0,0.211,0.003,0.327,0.01,0.347
		c0.02,0.139,0.089,0.208,0.208,0.208c0.178,0,0.366-0.139,0.564-0.416v-3.743h0.881V24.926z M128.693,23.46
		c0,0.482-0.03,0.812-0.089,0.99c-0.112,0.363-0.347,0.544-0.703,0.544c-0.317,0-0.624-0.182-0.921-0.544v0.475h-0.881v-6.566h0.881
		v2.149c0.284-0.357,0.591-0.535,0.921-0.535c0.357,0,0.591,0.185,0.703,0.554c0.059,0.172,0.089,0.498,0.089,0.98V23.46z
		 M132.04,22.648h-1.773v0.861c0,0.456,0.152,0.684,0.455,0.684c0.218,0,0.35-0.119,0.397-0.357c0.013-0.066,0.02-0.268,0.02-0.604
		h0.901v0.129c0,0.323-0.007,0.514-0.02,0.574c-0.019,0.178-0.089,0.357-0.208,0.535c-0.238,0.35-0.595,0.525-1.069,0.525
		c-0.456,0-0.812-0.168-1.07-0.505c-0.191-0.244-0.287-0.627-0.287-1.148v-1.713c0-0.522,0.092-0.904,0.277-1.149
		c0.258-0.337,0.611-0.505,1.059-0.505c0.443,0,0.793,0.168,1.05,0.505c0.179,0.244,0.268,0.627,0.268,1.149V22.648z M132.04,22.648
		"/>
	<path fill="#FFFFFF" d="M127.426,20.777c-0.152,0-0.3,0.073-0.446,0.218v2.981c0.145,0.145,0.294,0.218,0.446,0.218
		c0.257,0,0.386-0.221,0.386-0.663v-2.09C127.812,20.998,127.683,20.777,127.426,20.777L127.426,20.777z M127.426,20.777"/>
	<path fill="#FFFFFF" d="M130.713,20.777c-0.297,0-0.446,0.225-0.446,0.673v0.455h0.891V21.45
		C131.159,21.001,131.01,20.777,130.713,20.777L130.713,20.777z M130.713,20.777"/>
	<path fill="#FFFFFF" d="M122.078,13.073v2.684h0.99v-2.684l1.198-3.951h-1.01l-0.673,2.604l-0.703-2.604h-1.049
		c0.185,0.555,0.399,1.172,0.643,1.852C121.785,11.884,121.986,12.584,122.078,13.073L122.078,13.073z M122.078,13.073"/>
	<path fill="#FFFFFF" d="M125.594,15.825c0.456,0,0.805-0.168,1.05-0.505c0.185-0.244,0.277-0.634,0.277-1.169v-1.733
		c0-0.528-0.093-0.914-0.277-1.158c-0.245-0.337-0.594-0.505-1.05-0.505c-0.442,0-0.789,0.168-1.04,0.505
		c-0.185,0.244-0.277,0.631-0.277,1.158v1.733c0,0.528,0.093,0.918,0.277,1.169C124.805,15.657,125.151,15.825,125.594,15.825
		L125.594,15.825z M125.168,12.241c0-0.456,0.142-0.683,0.426-0.683c0.284,0,0.426,0.227,0.426,0.683v2.08
		c0,0.462-0.142,0.693-0.426,0.693c-0.284,0-0.426-0.231-0.426-0.693V12.241z M125.168,12.241"/>
	<path fill="#FFFFFF" d="M128.317,15.825c0.33,0,0.67-0.205,1.02-0.614v0.544h0.902v-4.941h-0.902v3.773
		c-0.198,0.284-0.386,0.426-0.564,0.426c-0.119,0-0.188-0.072-0.208-0.218c-0.007-0.013-0.01-0.129-0.01-0.347v-3.634h-0.901v3.902
		c0,0.337,0.026,0.584,0.079,0.742C127.818,15.704,128.013,15.825,128.317,15.825L128.317,15.825z M128.317,15.825"/>
</g>
<g>
	<path fill="#FFFFFF" d="M168.973,18.208v5.15h-2.986v-4.805c0-1.207-0.431-2.031-1.512-2.031c-0.825,0-1.316,0.555-1.532,1.092
		c-0.079,0.192-0.099,0.459-0.099,0.728v5.016h-2.987c0,0,0.04-8.139,0-8.981h2.987v1.273c-0.006,0.01-0.014,0.02-0.02,0.029h0.02
		V15.65c0.397-0.611,1.105-1.484,2.691-1.484C167.5,14.166,168.973,15.449,168.973,18.208L168.973,18.208z M156.733,10.047
		c-1.022,0-1.69,0.67-1.69,1.552c0,0.862,0.649,1.552,1.65,1.552h0.02c1.041,0,1.689-0.69,1.689-1.552
		C158.383,10.718,157.755,10.047,156.733,10.047L156.733,10.047z M155.221,23.358h2.985v-8.981h-2.985V23.358z M155.221,23.358"/>
</g>
</svg>
