<?xml version="1.0" encoding="utf-8"?>
<!-- Generator: Adobe Illustrator 22.1.0, SVG Export Plug-In . SVG Version: 6.00 Build 0)  -->
<svg version="1.1" id="Слой_1" xmlns="http://www.w3.org/2000/svg" xmlns:xlink="http://www.w3.org/1999/xlink" x="0px" y="0px"
	 viewBox="0 0 100 100" style="enable-background:new 0 0 100 100;" xml:space="preserve">
<style type="text/css">
	.st0{fill:none;stroke:#FF6B00;stroke-width:2;stroke-miterlimit:10;}
	.st1{fill:none;stroke:#FFBB09;stroke-width:2;stroke-miterlimit:10;}
	.st2{fill:none;stroke:#FF6B00;stroke-miterlimit:10;}
</style>
<g>
	<path class="st0" d="M84,75c0,5.5-4.5,10-10,10H28c-5.5,0-10-4.5-10-10V29c0-5.5,4.5-10,10-10h46c5.5,0,10,4.5,10,10V75z"/>
</g>
<path class="st0" d="M58.5,47"/>
<path class="st1" d="M33,15"/>
<circle class="st2" cx="51" cy="52" r="3"/>
<g>
	<path class="st0" d="M77,31"/>
</g>
<g>
	<path class="st0" d="M51,53"/>
</g>
<path class="st0" d="M77,52"/>
<path class="st0" d="M52,52"/>
<line class="st2" x1="51" y1="49" x2="51" y2="26"/>
<line class="st2" x1="54" y1="52.5" x2="77" y2="52.5"/>
<path class="st2" d="M50.5,52.5"/>
<g>
	<line class="st2" x1="76.5" y1="44.8" x2="76.5" y2="50"/>
</g>
<g>
	<line class="st2" x1="76.5" y1="35.1" x2="76.5" y2="39.8"/>
</g>
<g>
	<path class="st2" d="M71.7,26.5c0,0,1.1,0,2.4,0s2.4,1,2.4,2.3s0,2.3,0,2.3"/>
</g>
<g>
	<line class="st2" x1="62.9" y1="26.5" x2="67.3" y2="26.5"/>
</g>
<g>
	<line class="st2" x1="54" y1="26.5" x2="58.5" y2="26.5"/>
</g>
</svg>
