<?xml version="1.0" encoding="utf-8"?>
<!-- Generator: Adobe Illustrator 22.1.0, SVG Export Plug-In . SVG Version: 6.00 Build 0)  -->
<svg version="1.1" id="Слой_1" xmlns="http://www.w3.org/2000/svg" xmlns:xlink="http://www.w3.org/1999/xlink" x="0px" y="0px"
	 viewBox="0 0 100 100" style="enable-background:new 0 0 100 100;" xml:space="preserve">
<style type="text/css">
	.st0{fill:#2C9E47;}
	.st1{fill:#2C9E47;stroke:#2C9E47;stroke-miterlimit:10;}
</style>
<g>
	<path class="st0" d="M58,17v15H43V17H58 M58,15H43c-1.1,0-2,0.9-2,2v15c0,1.1,0.9,2,2,2h15c1.1,0,2-0.9,2-2V17
		C60,15.9,59.1,15,58,15L58,15z"/>
</g>
<g>
	<path class="st0" d="M39,43v15H24V43H39 M39,41H24c-1.1,0-2,0.9-2,2v15c0,1.1,0.9,2,2,2h15c1.1,0,2-0.9,2-2V43
		C41,41.9,40.1,41,39,41L39,41z"/>
</g>
<g>
	<path class="st0" d="M77,43v15H62V43H77 M77,41H62c-1.1,0-2,0.9-2,2v15c0,1.1,0.9,2,2,2h15c1.1,0,2-0.9,2-2V43
		C79,41.9,78.1,41,77,41L77,41z"/>
</g>
<g>
	<path class="st0" d="M58,70v15H43V70H58 M58,68H43c-1.1,0-2,0.9-2,2v15c0,1.1,0.9,2,2,2h15c1.1,0,2-0.9,2-2V70
		C60,68.9,59.1,68,58,68L58,68z"/>
</g>
<g>
	<path class="st0" d="M96,70v15H81V70H96 M96,68H81c-1.1,0-2,0.9-2,2v15c0,1.1,0.9,2,2,2h15c1.1,0,2-0.9,2-2V70
		C98,68.9,97.1,68,96,68L96,68z"/>
</g>
<g>
	<path class="st0" d="M20,70v15H5V70H20 M20,68H5c-1.1,0-2,0.9-2,2v15c0,1.1,0.9,2,2,2h15c1.1,0,2-0.9,2-2V70C22,68.9,21.1,68,20,68
		L20,68z"/>
</g>
<g>
	<line class="st1" x1="31.5" y1="41.5" x2="50.5" y2="33.5"/>
</g>
<line class="st1" x1="69.5" y1="41.5" x2="51.5" y2="33.5"/>
<line class="st1" x1="88.5" y1="68.5" x2="70.5" y2="59.5"/>
<line class="st1" x1="50.5" y1="68.5" x2="69.5" y2="59.5"/>
<line class="st1" x1="12.5" y1="68.5" x2="31.5" y2="59.5"/>
<line class="st1" x1="21.5" y1="77.5" x2="41.5" y2="77.5"/>
<line class="st1" x1="59.5" y1="77.5" x2="79.5" y2="77.5"/>
<line class="st1" x1="50.5" y1="68.5" x2="32.5" y2="59.5"/>
</svg>
