<?xml version="1.0" encoding="utf-8"?>
<!-- Generator: Adobe Illustrator 22.1.0, SVG Export Plug-In . SVG Version: 6.00 Build 0)  -->
<svg version="1.1" id="Слой_1" xmlns="http://www.w3.org/2000/svg" xmlns:xlink="http://www.w3.org/1999/xlink" x="0px" y="0px"
	 viewBox="0 0 1096 776" style="enable-background:new 0 0 1096 776;" xml:space="preserve">
<style type="text/css">
	.st0{fill:#231F20;}
	.st1{fill:#231F20;stroke:#231F20;stroke-miterlimit:10;}
	.st2{fill:none;stroke:#231F20;stroke-miterlimit:10;}
	.st3{fill:none;stroke:#231F20;stroke-width:0.5;stroke-miterlimit:10;}
	.st4{font-family:'MyriadPro-Regular';}
	.st5{font-size:12px;}
	.st6{stroke:#000000;stroke-miterlimit:10;}
	.st7{fill:none;stroke:#000000;stroke-miterlimit:10;}
</style>
<g>
	<path class="st0" d="M-1101.6-52.5c0.3,0,0.3-0.5,0-0.5S-1102-52.5-1101.6-52.5L-1101.6-52.5z"/>
</g>
<g>
	<path class="st0" d="M-1101.6-52.4c0.4,0,0.4-0.6,0-0.6S-1102-52.4-1101.6-52.4L-1101.6-52.4z"/>
</g>
<g>
	<path class="st0" d="M-1101.6-50.9c0.4,0,0.4-0.6,0-0.6C-1102.1-51.6-1102.1-50.9-1101.6-50.9L-1101.6-50.9z"/>
</g>
<g>
	<path class="st0" d="M-1101.6-50.9c0.5,0,0.5-0.8,0-0.8S-1102.1-50.9-1101.6-50.9L-1101.6-50.9z"/>
</g>
<g>
	<path class="st0" d="M-1101.6-52.3c0.5,0,0.5-0.8,0-0.8S-1102.2-52.3-1101.6-52.3L-1101.6-52.3z"/>
</g>
<g>
	<path class="st0" d="M-1114.7-46.7c0.3,0,0.3-0.5,0-0.5S-1115-46.7-1114.7-46.7L-1114.7-46.7z"/>
</g>
<g>
	<path class="st0" d="M-1114.7-46.7c0.3,0,0.3-0.5,0-0.5S-1115-46.7-1114.7-46.7L-1114.7-46.7z"/>
</g>
<g>
	<path class="st0" d="M-1113.2-47.4c1.3,0,1.3-2,0-2S-1114.5-47.4-1113.2-47.4L-1113.2-47.4z"/>
</g>
<g>
	<path class="st0" d="M-1114.7-48.1c0.4,0,0.4-0.6,0-0.6S-1115-48.1-1114.7-48.1L-1114.7-48.1z"/>
</g>
<g>
	<path class="st0" d="M-1115.1-46.9c0,1,0.1,1.5,0.7,2.3c0.9,1.2-0.3,3.4-0.6,4.6c-1.2,5.2-0.4,10.9-0.2,16.2
		c0.3,12.5-0.4,25,0.1,37.5c0.4,10.9-0.2,21.5-0.3,32.3c0,5.7-0.5,11.6,0,17.2c0.1,0.9,1.4,1,1.4,0v-0.1c0-0.9-1.4-0.9-1.4,0v0.1
		c0,1,1.4,0.9,1.4,0c0.5-4.6,0-9.4,0-14c0-8.8,0.7-17.6,0.5-26.5c-0.3-11-0.6-21.9-0.6-32.9c0-5.1,0.1-10.2-0.1-15.3
		c-0.2-6.1-1.1-12.5,1.4-18.3c0.1-0.2,0.1-0.4-0.1-0.5c-0.4-0.9-0.9-1.7-1.3-2.6C-1114.3-47.5-1115.1-47.5-1115.1-46.9L-1115.1-46.9
		z"/>
</g>
<g>
	<path class="st0" d="M-1114.7,66.3c0.4,0,0.4-0.5,0-0.5C-1115,65.7-1115,66.3-1114.7,66.3L-1114.7,66.3z"/>
</g>
<g>
	<path class="st0" d="M-1115.1,67.6c0.9,2.5-0.4,6.4-0.7,8.8c-0.5,3.8-1.1,7.7-1.1,11.5c-0.1,5.8,2.8,7.1,7.1,3.2
		c0.4-0.4,0.1-1-0.4-1.1c-4.1-0.3-7.6-1.6-11.4-3c-0.9-0.3-1.2,1-0.4,1.4c5.9,2.4,11.4,0.3,17.6,0.1c1,0,1-1.5,0-1.5
		c-4.7-0.1-9.7-1.4-13.6,1.6c-0.6,0.5-0.1,1.4,0.6,1.4c4.6,0,8.9-0.2,13.2-1.5c0.4-0.1,0.7-0.6,0.6-1c-1.6-5.8-9.9-17.5-3.3-22.2
		c-0.4-0.3-0.8-0.6-1.2-0.9c-1.4,8.5-2.2,15.7,1.5,23.8c0.1,0.2,0.4,0.4,0.7,0.4c0.7,0,0.9,0,1.5-0.3c0.3-0.2,0.6-0.8,0.3-1.1
		c-0.5-0.7-0.7-0.8-1.5-1.3c-0.5-0.3-1.1,0.3-0.8,0.8c2.1,3.1-0.4-3.1-0.7-4c-0.6-1.8-0.8-3.8-0.9-5.7c-0.2-4,0.7-8.1,1.4-12.1
		c0.1-0.6-0.6-1.4-1.2-0.9c-4.1,2.9-3.5,7.6-2.2,12c0.9,3,2.3,5.8,3.5,8.7c0.6,1.4,1.7,2.5-0.1,3c-3.5,1-7.3,0.9-11,0.9
		c0.2,0.5,0.4,0.9,0.6,1.4c3.4-2.7,8.6-1.3,12.5-1.3c0-0.5,0-1,0-1.5c-5.9,0.3-11.4,2.4-17.2,0.1c-0.1,0.5-0.3,0.9-0.4,1.4
		c3.9,1.4,7.6,2.7,11.8,2.8c-0.1-0.4-0.3-0.7-0.4-1.1c-2.5,2.5-4.8,3.2-5.1-1c-0.2-2.8,0.1-5.7,0.5-8.5c0.4-3.7,2.5-9.8,1.2-13.4
		C-1114.5,66.8-1115.2,67-1115.1,67.6L-1115.1,67.6z"/>
</g>
<g>
	<path class="st0" d="M-1111.8,69.1c0.3,0,0.3-0.5,0-0.5S-1112.1,69.1-1111.8,69.1L-1111.8,69.1z"/>
</g>
<g>
	<path class="st0" d="M-1111.8,69.9c1.3,0,1.3-2,0-2S-1113.1,69.9-1111.8,69.9L-1111.8,69.9z"/>
</g>
<g>
	<path class="st0" d="M-1113.2,71.3c1.3,0,1.3-2,0-2S-1114.5,71.3-1113.2,71.3L-1113.2,71.3z"/>
</g>
<g>
	<path class="st0" d="M-1113.2,72.1c0.4,0,0.4-0.6,0-0.6S-1113.6,72.1-1113.2,72.1L-1113.2,72.1z"/>
</g>
<g>
	<path class="st0" d="M-1111.8,73.7c0.6,0,0.6-0.9,0-0.9S-1112.3,73.7-1111.8,73.7L-1111.8,73.7z"/>
</g>
<g>
	<path class="st0" d="M-1111.4,73c-1.2-2.8-1.7-5.9-2.9-8.7c-0.2-0.5-1-0.1-0.8,0.4c1.5,5.7,4.1,11.3,4.4,17.2c0,0.5,0.8,0.5,0.8,0
		c-0.1-6.1-2.7-11.7-4.3-17.5c-0.3,0.1-0.6,0.2-0.8,0.4c1.2,2.8,1.7,5.9,2.9,8.7C-1111.9,74-1111.2,73.5-1111.4,73L-1111.4,73z"/>
</g>
<g>
	<path class="st0" d="M-1104.5-7.5c0.4,0,0.4-0.6,0-0.6S-1104.9-7.5-1104.5-7.5L-1104.5-7.5z"/>
</g>
<line class="st1" x1="278" y1="99" x2="278" y2="549"/>
<line class="st2" x1="278" y1="549" x2="236.8" y2="590.3"/>
<line class="st2" x1="278" y1="531.8" x2="236.8" y2="573.1"/>
<line class="st2" x1="969" y1="549" x2="278" y2="549"/>
<line class="st2" x1="969" y1="531.8" x2="278" y2="531.8"/>
<line class="st2" x1="348" y1="399.1" x2="507" y2="399.1"/>
<line class="st2" x1="699" y1="399.1" x2="858" y2="399.1"/>
<line class="st2" x1="348" y1="399.1" x2="348" y2="164.9"/>
<line class="st2" x1="507" y1="399.1" x2="507" y2="164.9"/>
<line class="st2" x1="699" y1="399.1" x2="699" y2="164.9"/>
<line class="st2" x1="858" y1="399.1" x2="858" y2="164.9"/>
<line class="st2" x1="699" y1="399.1" x2="726.5" y2="371.6"/>
<line class="st2" x1="348" y1="399.1" x2="375.5" y2="371.6"/>
<line class="st2" x1="375.5" y1="371.6" x2="507" y2="371.6"/>
<line class="st2" x1="726.5" y1="371.6" x2="858" y2="371.6"/>
<line class="st2" x1="375.5" y1="371.6" x2="375.5" y2="164.9"/>
<line class="st2" x1="726.5" y1="371.6" x2="726.5" y2="164.9"/>
<path class="st2" d="M699,428.1"/>
<path class="st2" d="M699,399.1"/>
<path class="st3" d="M858,428.1"/>
<path class="st3" d="M858,399.1"/>
<line class="st3" x1="348" y1="399.1" x2="348" y2="423.4"/>
<line class="st3" x1="507" y1="399.1" x2="507" y2="423.4"/>
<line class="st3" x1="345.2" y1="418.9" x2="509.8" y2="418.9"/>
<line class="st3" x1="345.9" y1="421.2" x2="350.1" y2="417"/>
<line class="st3" x1="504.9" y1="421.2" x2="509.1" y2="417"/>
<text transform="matrix(1 0 0 1 419.5 415.5787)" class="st4 st5">900</text>
<line class="st3" x1="156.1" y1="670.9" x2="180.4" y2="670.9"/>
<line class="st3" x1="156.1" y1="286.9" x2="180.4" y2="286.9"/>
<line class="st3" x1="175.9" y1="673.8" x2="175.9" y2="284.4"/>
<line class="st3" x1="178.2" y1="673" x2="174" y2="668.8"/>
<line class="st3" x1="178" y1="289" x2="173.8" y2="284.8"/>
<text transform="matrix(6.123234e-17 -1 1 6.123234e-17 172.5867 493.442)" class="st4 st5">2100</text>
<line class="st3" x1="699" y1="399.1" x2="699" y2="423.4"/>
<line class="st3" x1="858" y1="399.1" x2="858" y2="423.4"/>
<line class="st3" x1="696.2" y1="418.9" x2="860.8" y2="418.9"/>
<line class="st3" x1="696.9" y1="421.2" x2="701.1" y2="417"/>
<line class="st3" x1="855.9" y1="421.2" x2="860.1" y2="417"/>
<text transform="matrix(1 0 0 1 770.5 415.5787)" class="st4 st5">900</text>
<line class="st6" x1="236.8" y1="206.1" x2="236.8" y2="590.3"/>
<line class="st7" x1="156" y1="286.7" x2="236.8" y2="206.1"/>
<line class="st7" x1="236.8" y1="590.3" x2="218.5" y2="590.3"/>
<line class="st7" x1="236.8" y1="573.1" x2="218.5" y2="573.1"/>
<line class="st7" x1="218.5" y1="224.3" x2="218.5" y2="590.3"/>
<line class="st2" x1="699" y1="164.9" x2="858" y2="164.9"/>
<line class="st2" x1="348" y1="164.9" x2="507" y2="164.9"/>
<path class="st2" d="M278,164.9"/>
<line class="st2" x1="969" y1="531.8" x2="278" y2="531.8"/>
<g id="XMLID_1_">
	<g>
	</g>
	<g>
		<line class="st2" x1="156" y1="670.9" x2="112.4" y2="714.5"/>
		<line class="st2" x1="156" y1="653.8" x2="112.4" y2="697.5"/>
		<polyline class="st7" points="156,286.7 156,653.8 156,670.9 		"/>
		<line class="st2" x1="112.4" y1="714.5" x2="112.4" y2="697.5"/>
	</g>
</g>
<line class="st2" x1="969" y1="531.8" x2="969" y2="549"/>
<circle class="st2" cx="315.5" cy="505.6" r="6.5"/>
<circle class="st2" cx="332.1" cy="505.6" r="6.5"/>
<circle class="st2" cx="348.6" cy="505.6" r="6.5"/>
<line class="st2" x1="278" y1="99" x2="969" y2="99"/>
<line class="st2" x1="969" y1="531.8" x2="969" y2="99"/>
<line class="st2" x1="278" y1="99" x2="112.4" y2="264.6"/>
<line class="st2" x1="112.4" y1="714.6" x2="112.4" y2="264.6"/>
</svg>
