<?xml version="1.0" encoding="utf-8"?>
<!-- Generator: Adobe Illustrator 22.1.0, SVG Export Plug-In . SVG Version: 6.00 Build 0)  -->
<svg version="1.1" id="Слой_1" xmlns="http://www.w3.org/2000/svg" xmlns:xlink="http://www.w3.org/1999/xlink" x="0px" y="0px"
	 viewBox="0 0 1096 776" style="enable-background:new 0 0 1096 776;" xml:space="preserve">
<style type="text/css">
	.st0{fill:none;stroke:#414141;stroke-width:4;stroke-miterlimit:10;}
	.st1{fill:#414141;stroke:#414141;stroke-width:4;stroke-miterlimit:10;}
	.st2{fill:none;stroke:#414141;stroke-width:7;stroke-miterlimit:10;}
	.st3{fill:none;stroke:#414141;stroke-width:3;stroke-miterlimit:10;}
	.st4{fill:#414141;}
	.st5{fill:none;stroke:#414141;stroke-miterlimit:10;}
</style>
<image style="display:none;overflow:visible;enable-background:new    ;" width="828" height="670" xlink:href="../../../Downloads/Planirovka-odnojetazhnyh-kottedzhej-2.jpg"  transform="matrix(1 0 0 1 132 55)">
</image>
<g>
	<path class="st0" d="M519.8,396.7c0,5.5-4.5,10-10,10H272.7c-5.5,0-10-4.5-10-10V356c0-5.5,4.5-10,10-10h237.1c5.5,0,10,4.5,10,10
		V396.7z"/>
</g>
<g>
	<path class="st0" d="M416.4,597.9c0,5.5-4.5,10-10,10h-30.2c-5.5,0-10-4.5-10-10V463.8c0-5.5,4.5-10,10-10h30.2c5.5,0,10,4.5,10,10
		V597.9z"/>
</g>
<rect x="257.1" y="369.7" class="st1" width="5.6" height="13.4"/>
<rect x="520.6" y="369.7" class="st1" width="5.6" height="13.4"/>
<path class="st2" d="M403.1,376.4"/>
<path class="st2" d="M526.2,376.4c5,0,9.1,3.7,9.1,8.2v42.6c0,4.5-4.1,8.2-9.1,8.2H403.1c-6.1,0.5-8.5,3.8-9.1,8v10.5"/>
<path class="st3" d="M352.5,337.8"/>
<path class="st3" d="M837.7,282.7"/>
<g id="XMLID_1_">
	<g>
		<path class="st4" d="M442,212.3c43,0,77.8,30.6,77.8,68.4H364.2c0-0.3,0-0.6,0-0.9C364.8,242.4,399.4,212.3,442,212.3z"/>
		<path class="st4" d="M364.2,280.6h155.6v41.9H262.7v-42.8c0-25.1,22.7-45.4,50.6-45.4s50.6,20.3,50.6,45.4h0.3
			C364.2,280,364.2,280.3,364.2,280.6z"/>
	</g>
	<g>
		<line class="st3" x1="262.7" y1="322.6" x2="519.8" y2="322.6"/>
		<path class="st3" d="M262.7,279.7c0-25.1,22.7-45.4,50.6-45.4s50.6,20.3,50.6,45.4"/>
		<path class="st3" d="M364.2,280.6c0-0.3,0-0.6,0-0.9c0.5-37.3,35.2-67.5,77.8-67.5c43,0,77.8,30.6,77.8,68.4"/>
		<line class="st3" x1="519.8" y1="322.6" x2="519.8" y2="280.6"/>
		<line class="st3" x1="262.7" y1="322.6" x2="262.7" y2="279.7"/>
	</g>
</g>
<line class="st3" x1="651.1" y1="607.9" x2="651.1" y2="212.3"/>
<line class="st3" x1="824.8" y1="212.3" x2="824.8" y2="607.9"/>
<g id="XMLID_2_">
	<g>
		<rect x="758.3" y="212.3" class="st4" width="25.6" height="395.7"/>
		<rect x="692" y="212.3" class="st4" width="25.6" height="395.7"/>
	</g>
	<g>
		<line class="st3" x1="692" y1="212.3" x2="692" y2="608"/>
		<line class="st3" x1="717.5" y1="608" x2="717.5" y2="212.3"/>
		<line class="st3" x1="758.3" y1="212.3" x2="758.3" y2="608"/>
		<line class="st3" x1="784" y1="608" x2="784" y2="212.3"/>
		<line class="st5" x1="692" y1="212.3" x2="717.5" y2="212.3"/>
		<line class="st5" x1="758.3" y1="212.3" x2="784" y2="212.3"/>
		<line class="st5" x1="692" y1="608" x2="717.5" y2="608"/>
		<line class="st5" x1="758.3" y1="608" x2="784" y2="608"/>
	</g>
</g>
</svg>
