<?xml version="1.0" encoding="utf-8"?>
<!-- Generator: Adobe Illustrator 22.1.0, SVG Export Plug-In . SVG Version: 6.00 Build 0)  -->
<svg version="1.1" id="Слой_1" xmlns="http://www.w3.org/2000/svg" xmlns:xlink="http://www.w3.org/1999/xlink" x="0px" y="0px"
	 viewBox="0 0 130 130" style="enable-background:new 0 0 130 130;" xml:space="preserve">
<style type="text/css">
	.st0{fill:#FF6B00;}
</style>
<g>
	<g>
		<rect x="7" y="33.6" class="st0" width="10.8" height="77.3"/>
	</g>
	<g>
		<path class="st0" d="M23.3,107.9c0,1.7-1.4,3-3,3h-4.8c-1.7,0-3-1.3-3-3V36.6c0-1.7,1.3-3,3-3h4.8c1.6,0,3,1.3,3,3V107.9z"/>
	</g>
	<rect x="70.7" y="55.3" class="st0" width="23.1" height="29.8"/>
	<rect x="27.3" y="55.3" class="st0" width="23.1" height="29.8"/>
	
		<rect x="97.2" y="81.8" transform="matrix(-1.836970e-16 1 -1 -1.836970e-16 205.4041 -12.0206)" class="st0" width="23.1" height="29.8"/>
	<rect x="93.8" y="77" class="st0" width="24.4" height="23.1"/>
	<rect x="58.5" y="35" class="st0" width="9.5" height="20.3"/>
	<rect x="58.5" y="16" class="st0" width="9.5" height="14.9"/>
	<path class="st0" d="M76.2,32V20.2c0-0.8,0.6-1.4,1.4-1.4h5c1.7,0,3.1,1.4,3.1,3.1v8.4c0,1.9-1.5,3.4-3.4,3.4h-4.4
		C76.9,33.6,76.2,32.9,76.2,32z"/>
	<path class="st0" d="M40.9,30.5v-9c0-1.6,1.3-2.8,2.8-2.8H49c0.8,0,1.4,0.6,1.4,1.4V32c0,0.9-0.7,1.6-1.6,1.6H44
		C42.3,33.6,40.9,32.2,40.9,30.5z"/>
	<rect x="40.9" y="21.4" class="st0" width="44.8" height="9.5"/>
	<g>
		<ellipse class="st0" cx="62.6" cy="69.6" rx="21.7" ry="22.4"/>
	</g>
	<g>
		<path class="st0" d="M66.7,115"/>
	</g>
	<g>
		<path class="st0" d="M66.7,55.3c0,0,12.8,0,28.5,0s28.5,11.9,28.5,26.4s0,26.4,0,26.4"/>
	</g>
</g>
</svg>
