<?xml version="1.0" encoding="utf-8"?>
<!-- Generator: Adobe Illustrator 22.1.0, SVG Export Plug-In . SVG Version: 6.00 Build 0)  -->
<svg version="1.1" id="Слой_1" xmlns="http://www.w3.org/2000/svg" xmlns:xlink="http://www.w3.org/1999/xlink" x="0px" y="0px"
	 viewBox="0 0 130 130" style="enable-background:new 0 0 130 130;" xml:space="preserve">
<style type="text/css">
	.st0{fill:#FF6B00;}
	.st1{fill:#FFFFFF;}
	.st2{fill:none;stroke:#FF6B00;stroke-width:2;stroke-miterlimit:10;}
</style>
<rect x="8" y="24" class="st0" width="2" height="88"/>
<rect x="117" y="41" class="st0" width="2" height="71"/>
<rect x="53" y="-19" transform="matrix(6.123234e-17 -1 1 6.123234e-17 29 79)" class="st0" width="2" height="88"/>
<rect x="10" y="110" class="st0" width="107" height="2"/>
<rect x="52" y="43" transform="matrix(0.7071 -0.7071 0.7071 0.7071 -9.5556 78.9307)" class="st0" width="77" height="16"/>
<polygon class="st1" points="71,83 68.9,83.9 57.6,72.6 59,71 "/>
<polygon class="st0" points="68.9,83.9 51,90 51,90 57.6,72.6 "/>
<path class="st2" d="M35,72c0,18.2,15.7,33,35,33"/>
</svg>
