<?xml version="1.0" encoding="utf-8"?>
<!-- Generator: Adobe Illustrator 22.1.0, SVG Export Plug-In . SVG Version: 6.00 Build 0)  -->
<svg version="1.1" id="Слой_1" xmlns="http://www.w3.org/2000/svg" xmlns:xlink="http://www.w3.org/1999/xlink" x="0px" y="0px"
	 viewBox="0 0 130 130" style="enable-background:new 0 0 130 130;" xml:space="preserve">
<style type="text/css">
	.st0{fill:#FF6B00;}
	.st1{fill:none;stroke:#FF6B00;stroke-width:2;stroke-miterlimit:10;}
	.st2{fill:#FF6B00;stroke:#FF6B00;stroke-width:2;stroke-miterlimit:10;}
</style>
<g>
	<path class="st0" d="M101,40c0,2.8-2.3,5-5,5H21c-2.8,0-5-2.3-5-5V20c0-2.8,2.3-5,5-5h75c2.8,0,5,2.3,5,5V40z"/>
	<path class="st1" d="M101,40c0,2.8-2.3,5-5,5H21c-2.8,0-5-2.3-5-5V20c0-2.8,2.3-5,5-5h75c2.8,0,5,2.3,5,5V40z"/>
</g>
<rect x="63" y="56" class="st2" width="45" height="4"/>
<rect x="101" y="28" class="st2" width="7" height="4"/>
<rect x="102" y="42" transform="matrix(6.123234e-17 -1 1 6.123234e-17 68 156)" class="st2" width="20" height="4"/>
<rect x="54.5" y="63.5" transform="matrix(6.123234e-17 -1 1 6.123234e-17 -6.5 124.5)" class="st2" width="9" height="4"/>
<path class="st2" d="M69,79v36.2c0,2.7-2.1,4.8-4.8,4.8H52.8c-2.7,0-4.8-2.1-4.8-4.8V79.1c0-4.5,3.6-8.1,8.1-8.1H61
	C65.4,71,69,74.6,69,79z"/>
<path class="st2" d="M114,31v1h-4v-4h1C112.6,28,114,29.4,114,31z"/>
<path class="st2" d="M111,60h-1v-4h4v1C114,58.6,112.6,60,111,60z"/>
<path class="st2" d="M60,56h1v4h-4v-1C57,57.4,58.4,56,60,56z"/>
</svg>
