<?xml version="1.0" encoding="utf-8"?>
<!-- Generator: Adobe Illustrator 22.1.0, SVG Export Plug-In . SVG Version: 6.00 Build 0)  -->
<svg version="1.1" id="Слой_1" xmlns="http://www.w3.org/2000/svg" xmlns:xlink="http://www.w3.org/1999/xlink" x="0px" y="0px"
	 viewBox="0 0 100 100" style="enable-background:new 0 0 100 100;" xml:space="preserve">
<style type="text/css">
	.st0{fill:none;stroke:#2C9E47;stroke-width:2;stroke-miterlimit:10;}
	.st1{fill:none;stroke:#2C9E47;stroke-miterlimit:10;}
</style>
<polyline class="st0" points="65,54.5 63.5,50.1 63.5,34.3 87.4,34.3 87.4,63.6 76.4,63.6 "/>
<polygon class="st0" points="61.3,55.1 45.6,55.1 22.1,13.3 28.4,9.6 "/>
<polyline class="st0" points="77.4,63.6 77.4,66.1 54.5,66.1 54.5,63.6 45.6,63.6 45.4,55.1 65.9,55.1 "/>
<rect x="69.3" y="40.3" class="st1" width="12.2" height="9.9"/>
<g>
	<path class="st0" d="M90.4,82.6c0,2.8-2.3,5-5,5H47.6c-2.8,0-5-2.3-5-5v-7.5c0-2.8,2.3-5,5-5h37.8c2.8,0,5,2.3,5,5
		C90.4,75.1,90.4,82.6,90.4,82.6z"/>
</g>
<polygon class="st0" points="37.8,79.9 12.2,79.9 12.2,77.3 12.2,75 12.2,72.9 12.2,71.3 12.2,68.5 37.8,68.5 37.8,71.4 37.8,73.1 
	37.8,75.2 37.8,77.4 "/>
<line class="st0" x1="13.8" y1="68.3" x2="23.2" y2="60.1"/>
<line class="st0" x1="36.6" y1="68.5" x2="28.3" y2="60.1"/>
<path class="st0" d="M30,56.7c0,2.3-1.9,4.2-4.2,4.2s-4.2-1.9-4.2-4.2s1.9-4.2,4.2-4.2"/>
<line class="st0" x1="25.7" y1="53.4" x2="25.7" y2="48"/>
<polygon class="st0" points="28.6,48 23,48 21.5,37.4 30.4,37.4 "/>
<line class="st0" x1="24.4" y1="17.3" x2="24.4" y2="37.4"/>
<line class="st0" x1="27.7" y1="23.1" x2="27.7" y2="37.4"/>
<line class="st1" x1="30.8" y1="13.8" x2="28.6" y2="24"/>
<line class="st1" x1="30.4" y1="26.7" x2="37.4" y2="22.2"/>
<line class="st1" x1="38.8" y1="24" x2="36.1" y2="36.7"/>
<line class="st1" x1="37" y1="38.5" x2="44.8" y2="32.4"/>
<line class="st1" x1="46.2" y1="34.3" x2="41.4" y2="47.6"/>
<line class="st1" x1="42.2" y1="48.9" x2="52" y2="41.8"/>
<line class="st1" x1="54.1" y1="45.2" x2="48.8" y2="55.1"/>
<g>
	<path class="st1" d="M84.9,81.8c0,1.1-0.9,2-2,2H49.5c-1.1,0-2-0.9-2-2v-5.5c0-1.1,0.9-2,2-2h33.4c1.1,0,2,0.9,2,2V81.8z"/>
</g>
</svg>
