<?xml version="1.0" encoding="utf-8"?>
<!-- Generator: Adobe Illustrator 22.1.0, SVG Export Plug-In . SVG Version: 6.00 Build 0)  -->
<svg version="1.1" id="Слой_1" xmlns="http://www.w3.org/2000/svg" xmlns:xlink="http://www.w3.org/1999/xlink" x="0px" y="0px"
	 viewBox="0 0 100 100" style="enable-background:new 0 0 100 100;" xml:space="preserve">
<style type="text/css">
	.st0{display:none;fill:#272525;}
	.st1{fill:#FFFFFF;stroke:#2C9E47;stroke-miterlimit:10;}
	.st2{fill:none;stroke:#2C9E47;stroke-width:2;stroke-miterlimit:10;}
	.st3{fill:none;stroke:#2C9E47;stroke-miterlimit:10;}
	.st4{stroke:#2C9E47;stroke-miterlimit:10;}
</style>
<rect x="9" y="9" class="st0" width="82" height="82"/>
<path class="st1" d="M48.5,73.6"/>
<path class="st2" d="M35.2,89.5c0-9.2,4.7-12.6,12.5-17.2"/>
<path class="st3" d="M36.7,89.5"/>
<path class="st2" d="M74.9,73.3l0.3,0.2c6.2,4.3,10.6,7.4,10.6,16"/>
<path class="st3" d="M74.4,74.7"/>
<path class="st4" d="M65,69.6"/>
<line class="st2" x1="14.8" y1="89.5" x2="14.8" y2="19"/>
<path class="st1" d="M71.6,89.5"/>
<path class="st1" d="M71.6,88"/>
<path class="st1" d="M16.3,88"/>
<path class="st1" d="M71.6,18.9"/>
<path class="st2" d="M73.8,18.9H13.3c-1.2,0-2.2-1-2.2-2.2v-4.4c0-1.2,1-2.2,2.2-2.2h60.5c1.2,0,2.2,1,2.2,2.2v4.4
	C76,17.9,75,18.9,73.8,18.9z"/>
<polyline class="st3" points="23.5,26.8 23.5,25.3 29.6,25.3 29.6,26.8 "/>
<polyline class="st3" points="35.3,26.8 35.3,25.3 41.4,25.3 41.4,26.8 "/>
<polyline class="st3" points="47.2,26.8 47.2,25.3 53.3,25.3 53.3,26.8 "/>
<polyline class="st3" points="59,26.8 59,25.3 65.1,25.3 65.1,26.8 "/>
<polyline class="st3" points="23.5,32.7 23.5,31.3 29.6,31.3 29.6,32.7 "/>
<polyline class="st3" points="35.3,32.7 35.3,31.3 41.4,31.3 41.4,32.7 "/>
<polyline class="st3" points="47.2,32.7 47.2,31.3 53.3,31.3 53.3,32.7 "/>
<polyline class="st3" points="59,32.7 59,31.3 65.1,31.3 65.1,32.7 "/>
<polyline class="st3" points="23.5,38.7 23.5,37.2 29.6,37.2 29.6,38.7 "/>
<polyline class="st3" points="35.3,38.7 35.3,37.2 41.4,37.2 41.4,38.7 "/>
<polyline class="st3" points="23.5,44.6 23.5,43.1 29.6,43.1 29.6,44.6 "/>
<polyline class="st3" points="23.5,50.5 23.5,49 29.6,49 29.6,50.5 "/>
<polyline class="st3" points="23.5,56.4 23.5,54.9 29.6,54.9 29.6,56.4 "/>
<polyline class="st3" points="23.5,62.3 23.5,60.9 29.6,60.9 29.6,62.3 "/>
<polyline class="st3" points="23.5,68.2 23.5,66.8 29.6,66.8 29.6,68.2 "/>
<path class="st1" d="M8.5,93.5"/>
<line class="st2" x1="91" y1="89.5" x2="9" y2="89.5"/>
<path class="st1" d="M91,93.5"/>
<g>
	<path class="st3" d="M38.4,88.8"/>
</g>
<path class="st2" d="M60.7,72.9c-7.7,0-14.1-6.3-14.1-14.1s6.3-14.1,14.1-14.1S74.8,51,74.8,58.8C74.7,69.9,65.5,72.9,60.7,72.9z"/>
<g>
	<path class="st3" d="M38.4,75.1"/>
</g>
<g>
	<path class="st3" d="M88.9,75.8"/>
</g>
<g>
	<path class="st3" d="M49.1,88.8"/>
</g>
<g>
	<path class="st3" d="M74,88.8"/>
</g>
<path class="st3" d="M65.1,75.1"/>
<path class="st3" d="M68.4,50.5"/>
<line class="st2" x1="71.4" y1="19" x2="71.4" y2="50"/>
<path class="st3" d="M68.4,18.1"/>
</svg>
