<?xml version="1.0" encoding="utf-8"?>
<!-- Generator: Adobe Illustrator 22.1.0, SVG Export Plug-In . SVG Version: 6.00 Build 0)  -->
<svg version="1.1" id="Слой_1" xmlns="http://www.w3.org/2000/svg" xmlns:xlink="http://www.w3.org/1999/xlink" x="0px" y="0px"
	 viewBox="0 0 100 100" style="enable-background:new 0 0 100 100;" xml:space="preserve">
<style type="text/css">
	.st0{fill:none;stroke:#2C9E47;stroke-width:2;stroke-miterlimit:10;}
	.st1{fill:none;stroke:#2C9E47;stroke-miterlimit:10;}
	.st2{fill:#AE8C64;stroke:#2C9E47;stroke-miterlimit:10;}
</style>
<path class="st0" d="M73.1,86.4"/>
<path class="st0" d="M73.1,57.9"/>
<polyline class="st0" points="52.5,18.8 73.1,18.8 73.1,54 "/>
<polyline class="st0" points="49.4,86.4 19.4,86.4 19.4,18.8 40.1,18.8 "/>
<path class="st0" d="M55.6,86.4"/>
<path class="st0" d="M60,86.4"/>
<circle class="st0" cx="67.2" cy="75.1" r="16.2"/>
<path class="st0" d="M77.1,69"/>
<polyline class="st1" points="76.2,70.3 65.1,81.4 59.3,75.6 "/>
<path class="st1" d="M80,68.6"/>
<g>
	<path class="st0" d="M52.5,20.1v-7.6c0-1.6-1.4-3-3-3h-6.4c-1.7,0-3,1.4-3,3v7.6"/>
</g>
<circle class="st2" cx="46.6" cy="15.1" r="1.3"/>
<rect x="25" y="25.2" class="st2" width="2.6" height="2.6"/>
<rect x="25" y="30.5" class="st2" width="2.6" height="2.6"/>
<rect x="25" y="35.4" class="st2" width="2.6" height="2.6"/>
<rect x="25" y="40.6" class="st2" width="2.6" height="2.6"/>
<rect x="25" y="45.8" class="st2" width="2.6" height="2.6"/>
<rect x="25" y="51" class="st2" width="2.6" height="2.6"/>
<rect x="25" y="56.3" class="st2" width="2.6" height="2.6"/>
<rect x="25" y="61.5" class="st2" width="2.6" height="2.6"/>
<rect x="25" y="66.7" class="st2" width="2.6" height="2.6"/>
<rect x="25" y="71.9" class="st2" width="2.6" height="2.6"/>
<rect x="25" y="77.2" class="st2" width="2.6" height="2.6"/>
<g>
	<path class="st1" d="M52.5,23.8h4.1c0.5,0,1,0.5,1,1v4.7c0,0.5-0.5,1-1,1H36.4c-0.5,0-1-0.5-1-1v-4.7c0-0.5,0.5-1,1-1h3.8"/>
</g>
<polyline class="st1" points="52.5,18.4 52.5,26.5 40.1,26.5 40.1,18.4 "/>
</svg>
