<?xml version="1.0" encoding="utf-8"?>
<!-- Generator: Adobe Illustrator 22.1.0, SVG Export Plug-In . SVG Version: 6.00 Build 0)  -->
<svg version="1.1" id="Слой_1" xmlns="http://www.w3.org/2000/svg" xmlns:xlink="http://www.w3.org/1999/xlink" x="0px" y="0px"
	 viewBox="0 0 100 100" style="enable-background:new 0 0 100 100;" xml:space="preserve">
<style type="text/css">
	.st0{fill:none;stroke:#2C9E47;stroke-width:2;stroke-miterlimit:10;}
	.st1{fill:none;stroke:#2C9E47;stroke-miterlimit:10;}
</style>
<g>
	<path class="st0" d="M75.8,15.7h14.3c0.5,0,1,0.5,1,1V83c0,0.6-0.5,1-1,1H10.6c-0.5,0-1-0.4-1-1V16.7c0-0.5,0.5-1,1-1h15.7"/>
</g>
<g>
	<line class="st0" x1="26" y1="15.7" x2="76" y2="15.7"/>
</g>
<polyline class="st0" points="75.8,20.7 85.8,20.7 85.8,79.1 14.8,79.1 14.8,20.7 26.4,20.7 "/>
<line class="st0" x1="26" y1="20.7" x2="76" y2="20.7"/>
<polyline class="st0" points="85.8,20.7 85.8,48.7 75,48.7 61.7,48.7 "/>
<line class="st0" x1="51" y1="51" x2="51" y2="21.7"/>
<line class="st0" x1="61.7" y1="42.8" x2="61.7" y2="54.5"/>
<line class="st0" x1="37" y1="62" x2="51" y2="62"/>
<line class="st0" x1="50.8" y1="78.1" x2="50.8" y2="61"/>
<line class="st0" x1="41" y1="16" x2="41" y2="21"/>
<line class="st0" x1="60.3" y1="15.5" x2="60.3" y2="21.6"/>
<line class="st0" x1="77.2" y1="15.4" x2="77.2" y2="20.5"/>
<path class="st0" d="M50.4,47.3"/>
<path class="st0" d="M38,61c0-6.1,5.9-11,12-11"/>
<path class="st0" d="M49.4,72"/>
<path class="st0" d="M41.3,18.7"/>
<path class="st0" d="M25,18.7"/>
<path class="st0" d="M77.2,18.7"/>
<path class="st0" d="M60.3,18.7"/>
<line class="st1" x1="20.8" y1="31.8" x2="29.7" y2="31.8"/>
<line class="st1" x1="20.8" y1="39.3" x2="29.7" y2="39.3"/>
<line class="st1" x1="20.5" y1="46.8" x2="29.5" y2="46.8"/>
<line class="st0" x1="25" y1="16" x2="25" y2="21"/>
</svg>
