<?xml version="1.0" encoding="utf-8"?>
<!-- Generator: Adobe Illustrator 22.1.0, SVG Export Plug-In . SVG Version: 6.00 Build 0)  -->
<svg version="1.1" id="Слой_1" xmlns="http://www.w3.org/2000/svg" xmlns:xlink="http://www.w3.org/1999/xlink" x="0px" y="0px"
	 viewBox="0 0 100 100" style="enable-background:new 0 0 100 100;" xml:space="preserve">
<style type="text/css">
	.st0{fill:none;stroke:#2C9E47;stroke-width:2;stroke-miterlimit:10;}
	.st1{fill:none;stroke:#2C9E47;stroke-miterlimit:10;}
</style>
<polyline class="st0" points="81.8,79.9 11.7,79.9 11.7,87 86.9,87 86.9,79.9 81.8,79.9 "/>
<g>
	<path class="st0" d="M17,79.9V76c0-1.1,0.9-2,2-2h2.6"/>
</g>
<g>
	<path class="st0" d="M77.2,74.1h2.6c1.1,0,2,0.9,2,2V80"/>
</g>
<rect x="28.3" y="38.6" class="st1" width="4.6" height="35.4"/>
<rect x="40.6" y="38.6" class="st1" width="4.6" height="35.4"/>
<rect x="53.4" y="38.6" class="st1" width="4.6" height="35.4"/>
<rect x="65.9" y="38.6" class="st1" width="4.6" height="35.4"/>
<line class="st0" x1="20.5" y1="74.1" x2="20.5" y2="39.5"/>
<line class="st0" x1="78.3" y1="74.1" x2="78.3" y2="39.5"/>
<polyline class="st0" points="86,26.8 86,33.9 12.9,33.9 12.9,26.8 "/>
<polyline class="st0" points="86.7,27.7 49.4,13 12.2,27.6 "/>
<circle class="st1" cx="49.4" cy="24.2" r="4.1"/>
<line class="st1" x1="30.6" y1="38.6" x2="30.6" y2="33.9"/>
<line class="st1" x1="42.9" y1="38.6" x2="42.9" y2="33.9"/>
<line class="st1" x1="55.7" y1="38.6" x2="55.7" y2="33.9"/>
<line class="st1" x1="68.2" y1="38.6" x2="68.2" y2="33.9"/>
<line class="st0" x1="17.8" y1="40" x2="17.8" y2="33.9"/>
<line class="st0" x1="81.3" y1="38.6" x2="81.3" y2="33.9"/>
<line class="st0" x1="77.3" y1="39.5" x2="82.4" y2="39.5"/>
<line class="st0" x1="20.5" y1="74.1" x2="77.8" y2="74.1"/>
<line class="st0" x1="17.5" y1="39" x2="21.5" y2="39"/>
</svg>
