<?xml version="1.0" encoding="utf-8"?>
<!-- Generator: Adobe Illustrator 22.1.0, SVG Export Plug-In . SVG Version: 6.00 Build 0)  -->
<svg version="1.1" id="Слой_1" xmlns="http://www.w3.org/2000/svg" xmlns:xlink="http://www.w3.org/1999/xlink" x="0px" y="0px"
	 viewBox="0 0 100 100" style="enable-background:new 0 0 100 100;" xml:space="preserve">
<style type="text/css">
	.st0{fill:none;stroke:#2C9E47;stroke-width:2;stroke-miterlimit:10;}
	.st1{fill:none;stroke:#2C9E47;stroke-miterlimit:10;}
	.st2{fill:#AE8C64;stroke:#2C9E47;stroke-miterlimit:10;}
</style>
<g>
	<path class="st0" d="M90.9,81.8v-62c0-1.6-1.3-3-3-3H14.1c-1.6,0-3,1.4-3,3v62"/>
</g>
<path class="st0" d="M90.9,81.8"/>
<path class="st0" d="M92.3,81.8"/>
<line class="st0" x1="9.9" y1="81.8" x2="92.1" y2="81.8"/>
<line class="st1" x1="27" y1="46.8" x2="58.7" y2="46.8"/>
<line class="st1" x1="27" y1="63.6" x2="58.7" y2="63.6"/>
<rect x="14.7" y="28.5" class="st2" width="2.4" height="2.4"/>
<rect x="19.5" y="28.5" class="st2" width="2.4" height="2.4"/>
<rect x="24.3" y="28.5" class="st2" width="2.4" height="2.4"/>
<rect x="29.2" y="28.5" class="st2" width="2.4" height="2.4"/>
<rect x="34" y="28.5" class="st2" width="2.4" height="2.4"/>
<rect x="38.9" y="28.5" class="st2" width="2.4" height="2.4"/>
<rect x="43.7" y="28.5" class="st2" width="2.4" height="2.4"/>
<rect x="48.5" y="28.5" class="st2" width="2.4" height="2.4"/>
<rect x="53.4" y="28.5" class="st2" width="2.4" height="2.4"/>
<rect x="58.2" y="28.5" class="st2" width="2.4" height="2.4"/>
<rect x="63" y="28.5" class="st2" width="2.4" height="2.4"/>
<rect x="67.9" y="28.5" class="st2" width="2.4" height="2.4"/>
<rect x="72.7" y="28.5" class="st2" width="2.4" height="2.4"/>
<rect x="77.6" y="28.5" class="st2" width="2.4" height="2.4"/>
<rect x="82.4" y="28.5" class="st2" width="2.4" height="2.4"/>
<polyline class="st1" points="79.4,40.6 68.8,50.4 64.3,45.5 "/>
<path class="st1" d="M78.2,31.8"/>
<polyline class="st1" points="79.4,58.8 68.8,68.6 64.3,63.7 "/>
</svg>
